<mxfile host="Electron" modified="2024-05-12T14:37:18.856Z" agent="Mozilla/5.0 (Windows NT 10.0; Win64; x64) AppleWebKit/537.36 (KHTML, like Gecko) draw.io/23.1.5 Chrome/120.0.6099.109 Electron/28.1.0 Safari/537.36" etag="hdT2-WcHl_foy3yVX1Da" version="23.1.5" type="device">
  <diagram name="Strona-1" id="qhjlecZrfErG3EmEXIc5">
    <mxGraphModel dx="1195" dy="798" grid="1" gridSize="10" guides="1" tooltips="1" connect="1" arrows="1" fold="1" page="1" pageScale="1" pageWidth="700" pageHeight="165" math="0" shadow="0">
      <root>
        <mxCell id="0" />
        <mxCell id="1" parent="0" />
        <mxCell id="oDQJR88P7lTVQKwUNWeM-1" value="" style="shape=image;verticalLabelPosition=bottom;labelBackgroundColor=default;verticalAlign=top;aspect=fixed;imageAspect=0;image=data:image/png,iVBORw0KGgoAAAANSUhEUgAABnwAAAH0CAYAAAAXP4P8AAAABHNCSVQICAgIfAhkiAAAIABJREFUeF7s3QmcXVd9GP7zltm0S17kTZt3Y2MDNtgmJDHg4JKEGDAplKRASktCiFPbSfMJIVCSQExoUhyCgbQh0LRxoCSsaYAShyUtNmAHgxe8SpYFtmR50Yy2Wd7yf+f+M6ruPVd6b0YjaZ70vR/mY955v3Puud9z7n1v5qd7T6Xd2YKNAAECBAgQIECAAAECBAgQIECAAAECBAgQIECgbwWqfdtzHSdAgAABAgQIECBAgAABAgQIECBAgAABAgQIEMgEJHxMBAIECBAgQIAAAQIECBAgQIAAAQIECBAgQIBAnwtI+PT5AOo+AQIECBAgQIAAAQIECBAgQIAAAQIECBAgQEDCxxwgQIAAAQIECBAgQIAAAQIECBAgQIAAAQIECPS5gIRPnw+g7hMgQIAAAQIECBAgQIAAAQIECBAgQIAAAQIEJHzMAQIECBAgQIAAAQIECBAgQIAAAQIECBAgQIBAnwtI+PT5AOo+AQIECBAgQIAAAQIECBAgQIAAAQIECBAgQEDCxxwgQIAAAQIECBAgQIAAAQIECBAgQIAAAQIECPS5gIRPnw+g7hMgQIAAAQIECBAgQIAAAQIECBAgQIAAAQIEJHzMAQIECBAgQIAAAQIECBAgQIAAAQIECBAgQIBAnwtI+PT5AOo+AQIECBAgQIAAAQIECBAgQIAAAQIECBAgQEDCxxwgQIAAAQIECBAgQIAAAQIECBAgQIAAAQIECPS5gIRPnw+g7hMgQIAAAQIECBAgQIAAAQIECBAgQIAAAQIEJHzMAQIECBAgQIAAAQIECBAgQIAAAQIECBAgQIBAnwtI+PT5AOo+AQIECBAgQIAAAQIECBAgQIAAAQIECBAgQEDCxxwgQIAAAQIECBAgQIAAAQIECBAgQIAAAQIECPS5gIRPnw+g7hMgQIAAAQIECBAgQIAAAQIECBAgQIAAAQIEJHzMAQIECBAgQIAAAQIECBAgQIAAAQIECBAgQIBAnwtI+PT5AOo+AQIECBAgQIAAAQIECBAgQIAAAQIECBAgQEDCxxwgQIAAAQIECBAgQIAAAQIECBAgQIAAAQIECPS5gIRPnw+g7hMgQIAAAQIECBAgQIAAAQIECBAgQIAAAQIEJHzMAQIECBAgQIAAAQIECBAgQIAAAQIECBAgQIBAnwtI+PT5AOo+AQIECBAgQIAAAQIECBAgQIAAAQIECBAgQEDCxxwgQIAAAQIECBAgQIAAAQIECBAgQIAAAQIECPS5gIRPnw+g7hMgQIAAAQIECBAgQIAAAQIECBAgQIAAAQIEJHzMAQIECBAgQIAAAQIECBAgQIAAAQIECBAgQIBAnwtI+PT5AOo+AQIECBAgQIAAAQIECBAgQIAAAQIECBAgQEDCxxwgQIAAAQIECBAgQIAAAQIECBAgQIAAAQIECPS5gIRPnw+g7hMgQIAAAQIECBAgQIAAAQIECBAgQIAAAQIEJHzMAQIECBAgQIAAAQIECBAgQIAAAQIECBAgQIBAnwtI+PT5AOo+AQIECBAgQIAAAQIECBAgQIAAAQIECBAgQEDCxxwgQIAAAQIECBAgQIAAAQIECBAgQIAAAQIECPS5gIRPnw+g7hMgQIAAAQIECBAgQIAAAQIECBAgQIAAAQIEJHzMAQIECBAgQIAAAQIECBAgQIAAAQIECBAgQIBAnwtI+PT5AOo+AQIECBAgQIAAAQIECBAgQIAAAQIECBAgQEDCxxwgQIAAAQIECBAgQIAAAQIECBAgQIAAAQIECPS5gIRPnw+g7hMgQIAAAQIECBAgQIAAAQIECBAgQIAAAQIEJHzMAQIECBAgQIAAAQIECBAgQIAAAQIECBAgQIBAnwtI+PT5AOo+AQIECBAgQIAAAQIECBAgQIAAAQIECBAgQEDCxxwgQIAAAQIECBAgQIAAAQIECBAgQIAAAQIECPS5gIRPnw+g7hMgQIAAAQIECBAgQIAAAQIECBAgQIAAAQIEJHzMAQIECBAgQIAAAQIECBAgQIAAAQIECBAgQIBAnwtI+PT5AOo+AQIECBAgQIAAAQIECBAgQIAAAQIECBAgQEDCxxwgQIAAAQIECBAgQIAAAQIECBAgQIAAAQIECPS5gIRPnw+g7hMgQIAAAQIECBAgQIAAAQIECBAgQIAAAQIEJHzMAQIECBAgQIAAAQIECBAgQIAAAQIECBAgQIBAnwtI+PT5AOo+AQIECBAgQIAAAQIECBAgQIAAAQIECBAgQEDCxxwgQIAAAQIECBAgQIAAAQIECBAgQIAAAQIECPS5gIRPnw+g7hMgQIAAAQIECBAgQIAAAQIECBAgQIAAAQIEJHzMAQIECBAgQIAAAQIECBAgQIAAAQIECBAgQIBAnwtI+PT5AOo+AQIECBAgQIAAAQIECBAgQIAAAQIECBAgQEDCxxwgQIAAAQIECBAgQIAAAQIECBAgQIAAAQIECPS5gIRPnw+g7hMgQIAAAQIECBAgQIAAAQIECBAgQIAAAQIEJHzMAQIECBAgQIAAAQIECBAgQIAAAQIECBAgQIBAnwtI+PT5AOo+AQIECBAgQIAAAQIECBAgQIAAAQIECBAgQEDCxxwgQIAAAQIECBAgQIAAAQIECBAgQIAAAQIECPS5gIRPnw+g7hMgQIAAAQIECBAgQIAAAQIECBAgQIAAAQIEJHzMAQIECBAgQIAAAQIECBAgQIAAAQIECBAgQIBAnwtI+PT5AOo+AQIECBAgQIAAAQIECBAgQIAAAQIECBAgQEDCxxwgQIAAAQIECBAgQIAAAQIECBAgQIAAAQIECPS5gIRPnw+g7hMgQIAAAQIECBAgQIAAAQIECBAgQIAAAQIEJHzMAQIECBAgQIAAAQIECBAgQIAAAQIECBAgQIBAnwtI+PT5AOo+AQIECBAgQIAAAQIECBAgQIAAAQIECBAgQEDCxxwgQIAAAQIECBAgQIAAAQIECBAgQIAAAQIECPS5gIRPnw+g7hMgQIAAAQIECBAgQIAAAQIECBAgQIAAAQIEJHzMAQIECBAgQIAAAQIECBAgQIAAAQIECBAgQIBAnwtI+PT5AOo+AQIECBAgQIAAAQIECBAgQIAAAQIECBAgQEDCxxwgQIAAAQIECBAgQIAAAQIECBAgQIAAAQIECPS5gIRPnw+g7hMgQIAAAQIECBAgQIAAAQIECBAgQIAAAQIEJHzMAQIECBAgQIAAAQIECBAgQIAAAQIECBAgQIBAnwtI+PT5AOo+AQIECBAgQIAAAQIECBAgQIAAAQIECBAgQEDCxxwgQIAAAQIECBAgQIAAAQIECBAgQIAAAQIECPS5gIRPnw+g7hMgQIAAAQIECBAgQIAAAQIECBAgQIAAAQIEJHzMAQIECBAgQIAAAQIECBAgQIAAAQIECBAgQIBAnwtI+PT5AOo+AQIECBAgQIAAAQIECBAgQIAAAQIECBAgQEDCxxwgQIAAAQIECBAgQIAAgUTgne98Z6hUKuGJJ55I3lNAgAABAgQIECBAgMD8E5DwmX9jokcECBAgQIAAAQJHgMCdd94ZXvWqV4U1a9aE4eHhcPLJJ4ef+ImfCH/yJ39y2I9u165dIf4x/6tf/eph78uR1IE4tkuXLg1TU1NH0mE5FgIECBAgQIAAAQIE+kRAwqdPBko3CRAgQIAAAQIE+kfgG9/4RrjooovCd7/73fDv/t2/Cx/4wAfCv/23/zZUq9Xwx3/8x4f9QGLC53d+53ckfOZ4JP7X//pf4SUveUkYGBiY45Y1R4AAAQIECBAgQIAAge4C9e4hIggQIECAAAECBAgQmInAu9/97uxOj29/+9th2bJluaqPP/74TJqaF7E7d+4MCxcuPCR9OZT7mssDikm0r33ta+FDH/rQXDarLQIECBAgQIAAAQIECPQs4A6fnqkEEiBAgAABAgQIEOhN4KGHHgrnnntukuyJtY8//vhcI3GNlF/5lV8Jf/mXfxnOOuus7PFvF154Yfj617+e7OyHP/xh+Df/5t+ElStXhqGhoWwff/7nf57EjY+PZ49sO/PMM7P2TjzxxPDKV74yxH49/PDD4bjjjsvqxLt84v7jT4yP2xve8IawaNGiLPYnf/Inw+LFi8PP/dzPZe/FZMyv/dqvhVWrVmX7j/39wz/8w9But7P3p7fdu3eHX/3VXw3HHntsVv9nfuZnQuz73vuJsdNrxNxzzz3hta99bVi+fHl4wQtekDXzve99L+vLqaeemh3DCSeckB37k08++f92tFcb999/f/j5n//5LNEWj+/tb3971q9NmzaFK6+8MixZsiRr44/+6I9y9eOLRx55JNx7771J+UwKbr755jAxMRFe+tKXZtXiY92i7xlnnJH1/5hjjsmO7ctf/vKeZqet169fH6644oosqXbSSSeF3/3d301MW61WuOGGG7Ixj+3FOfCLv/iL4emnn066+YUvfCH86I/+aNZe9P+pn/qpcPfddydx8Zj/5b/8l5nXyMhINp5ve9vbkrht27ZlYxGTl9H3F37hF0JMcHXbLrvssnDeeeeF22+/PTz/+c/P9rFu3brw4Q9/OFc1Plowzo3/+T//Z4jJ0lNOOSU7xhe/+MXhwQcfTHZz4403ZvMitve85z0v/OM//mOI+4o/NgIECBAgQIAAAQJHs4A7fI7m0XfsBAgQIECAAAECB0Ugrttzyy23hLvuuiv7g3e3Ld4Z8olPfCJLksREygc/+MHwL/7Fvwjf+ta39tTfsmVLuOSSS7I/jMcEUfwjffzD/hvf+MYwNjYWrrnmmmw3zWYz/PRP/3SICYjXvOY14d//+38ftm/fniUaYn8uv/zy7C6UN7/5zeEVr3hFlgiK2/nnn7+nm41GI0tAxARFTOgsWLAgS0DExM1XvvKVbJ/Petazwpe+9KXwH/7Df8iSOe973/v21I/JgfjH+3/9r/911ud4fDHpsK/tZ3/2Z7PEyO///u/vSXTE/sZESEwuxERNTFj8l//yX7L/3nrrrZnD3turX/3qcM4554T3vOc9IT5a7V3veldYsWJF+NM//dPwohe9KPzBH/xBllT79V//9fDc5z43/NiP/die6q973euyPhYTV/vqb1n53/3d32WJupiIiVtMZl1//fXZo/xiUiKO0W233Rb+6Z/+KVvLaXqL4xXHOjq9973vDV/84hfDf/yP/zHEMYiJn+ktJnc+9rGPZR5xnmzYsCF7VOB3vvOd8H//7//d8xi5//7f/3t4/etfn41fPOaYmInjHccyxq5duzZrMibUYlIoPn7uTW96U1Yek3yf//zns6TL3ltMCsVETTye2P8/+7M/yxKXsf1uW0xIxcRhbONf/at/lc2LOPcGBwezBN7eWxy7+NjDOEajo6OZR0w2fvOb39wTFo8lzv/Y92uvvTZLYL785S/PkoUxUWQjQIAAAQIECBAgcFQLdH6psREgQIAAAQIECBAgMIcC//t//+92rVbLfi699NL2b/zGb7Q7yZH25ORkspfOLyPx9ph2Jxmw572NGze2O3c4tDsJmT1lnSRLu3OnTvuJJ57ItdFJ6rQ7d120O3/Yz8o7d/xk7f3n//yfk3117hLJyrZu3ZrFdBILSUwnWZC995u/+Zu59z7zmc9k5Z1ESq78Va96VbuTfGl37sTIyjt3c2RxnQRULq6TBEr2GfcfYzuJgKQf08ez9xt/9Vd/lcV37n7aUzzdRidpsaeskyxpd/74n/Wrk0TYU95JPrQ7d4W04zHuvf34j/941u6BbKtXr855XnDBBe1Okmu/TU5bX3311Xvi4hjFep2ESDZOcevcwZL1r5OwyrXXSQ7lyjuJvXbnLpx2Z92oXNzmzZuzObJ3eSfh1e7c/dOOc23vbXqOxLJp205iJhcT52XnjqVcWdmLadfOXVV73u7cBdXuJAvbnYTRnvOhk0TMjqOTsGvH96e3znpXWfmdd96ZFcX34n47Cbt25w6qPXGdRFgWF/dnI0CAAAECBAgQIHA0C3ikW+c3AxsBAgQIECBAgACBuRSId3DEO3ziHTHf/e53szsV4h0XJ598cvjc5z6X7KqTFMruDpneOsmD7DFk8Q6aeAdI5xeW8Dd/8zfhZS97Wfb/O0mfPT+x3Xg3RLzzIm4xLj5KrZNESPZTvCsmCdirIN6FsfcW72DpJLCyu0v23uIj3mKf4t1GcYt3qMTtl3/5l3NxZf2ZDvilX/qlXGx8ER/XNb3FR9TFY453wcRt+lj3rhTvpJneYj8vuuiirF/xbqTpLT6SLD62LN45tPcWHykWY2e7xTun4mPh9r6LKe4r3o30wAMPdG023rEyvU3fwdVJDoa///u/z4o/+clPZo9Si/Nq77GPcyY+fi/edRW3eFdUfPxavJNm77jocfHFF++J6ySSskcGxjts4lzbeyubI8XxiXfXxEfrxbuWum31ej179Nz0Fu/sia/jWlbxUW97b/Hupfj+9Bb3E7fp8Yp3SMX9dhJXIbY7vcW7gOIdPjYCBAgQIECAAAECR7uAR7od7TPA8RMgQIAAAQIECBwUgfjYsE996lMh/uE+Jn0+/elPZ48969wRE+64447wjGc8Y89+4+PMiltcfyc+jiv+cT4+5ir+IT8+0iz+lG3xD+hxi4/likmNvf8gXha/v7JYt/h4rM6dINn6MnFNmL23+Bi1uMX3p/8b+xsfAbb3dvrpp+de7/2iGBvfe+qpp7I1cD7+8Y9nyYG9t5jgKm7FxEVMkMR1YGLya+8tlhfXASq2NdPX8RFy8VFuMck0vcXHscWkXRzH+Fi/+Ni2+Ii7vR+dF2OjVVyPZu8t1olbfFxZ3GLSKB5zcf2n6TrTPtPJpfgIu7ItrmMUt+kESi+PG4zxRdvp5Ep8XNt0m2X7i2VxzsS1hPbe9j6+6SRet/3E96fnWHEuxfk6/ai6ffVDOQECBAgQIECAAIGjQUDC52gYZcdIgAABAgQIECBw2ATiHQsx+RN/4h+6410M8Y6NzuOyeu5T5zFbWezP//zPZ+uzlG3FREJZTK9lcR2hmIg4VNved/NM7zOu+fKNb3wjWyMorhcU72SJDjFxMu2xd//iXSzFrawsxhzI3TzFfcTX8e6n2K+9746JawTF5NtnP/vZ0HnEX7buTUz4ffjDH87W9ZnJFo83JnviGkRlW1zPKW7TLnEdn7juUXGbbRLwUDkeqv0UXbwmQIAAAQIECBAgcKQISPgcKSPpOAgQIECAAAECBOa9wPQdII899liur2WP/br//vvDggULwvQf8+OdNfHxbpdffvl+j/O0007LFrnvrHESBgYGSmPLHttVGrhX4Zo1a7JHjHXWicnd5XPvvfdmUfH96f/GxMOGDRvC3ncuddb46baLPe/HO0duvvnm7A6fd7zjHXvKy5x6bvQgBcY7r2Jiau/Hsk3vasWKFVmCL/7s2LEjxCTQO9/5zlzCJ1rFO26m73qJdePYx236rpU4ptH+R37kR3KPuiseUoyLW0wO7W+eTN9RFB9Fd7C3Rx99NOzcuTN3l0/x+Hrtw/Qci3PphS984Z5qnTWbsruh5jLp2WufxBEgQIAAAQIECBCYTwKH7p/tzaej1hcCBAgQIECAAAECB1EgrqlSdhdJvBMkbvGRa3tvcb2fvdel2bRpU3ZnyEte8pJs3Zz4c9VVV2Xr85T9kT4+9m16i3Fx/ZYPfOADyRFO9ykmkuIWkxW9bj/5kz+ZJZyK7ca7VmIC6aUvfWnWVFxTKG4f/OAHc03/yZ/8Sa+7yo43bkXDG264oec2ZhIY19+ZTlx1qxfjYvz0Fu/eiVscq7234mPj4h1K8VFkExMTyS72No3HHF/HZN2LX/ziLDbe7RTtf+/3fi+pG5Md0+MY7eMj1n7/938/S/gVt+l5EpOIMfn053/+57ljifFF82Ib+3q9L8PYvz/90z/dUy0+4jC+jn3Ye92qfbW7d3lMmB5zzDHhv/7X/xpiu9NbvPMpJgltBAgQIECAAAECBI52AXf4HO0zwPETIECAAAECBAjMucDVV1+drb/zile8Ipx99tnZOj7xLpBPfOIT2V0b8Y6Pvbe4lkr8Y/2v/uqvhvg4telkSbzDZXp7z3veE2Ii6eKLL84WrY9rAMV1bmKiKN79Ef9/3F73uteFv/iLvwjXXXdd+Na3vhXiwvfxDosY88u//MvZujLxEWqxfuxPvLMk3okS+7C/NV1e9rKXZXdVvO1tb8vuprjggguyR5XFxNQ111wTpu8uiX/Ej0mnmJyJSY+4RsvXvva1PXet9HJ3UUxaxITEe9/73ixxcfLJJ2f7incNHYwtmsU+9pLsiGsW/fiP/3j46le/mnUlrt/zghe8IMS1gfbeou9ll12WJTWi72233Rb++q//OrkTKK4z9MUvfjF7VF8c2y984QtZm7/1W7+15+6uuL9f/MVfDNdff322/lNMLsWEULzjKT4e8I//+I+ztaGi24c+9KFsraDnPOc54TWveU3WRkzGxDbjHULTyaX3v//9Wb9j3Jve9KZszaU4rjEu7mOm274M4xo+f/AHf5C1HedanHOx/bgW1b7uQNvXvuPjEeMdUvH8iusUxURYbPdjH/tYNv96mVv7als5AQIECBAgQIAAgSNBQMLnSBhFx0CAAAECBAgQIDCvBP7wD/8w+0N8vKMn/mE7Jnziwvcx4fLbv/3bYdmyZbn+xj/oX3rppdkjzOIf52OyIP4Re+9HVK1cuTJL4Pzu7/5u+NSnPpUlheLdDueee272B/XpLd4dE/f77ne/O9x0003ZXUExLv5x/5nPfOaeuLimTPzD+bXXXpv1L64ptL+ET1zT53Of+1z2iLX4R/uPfvSjWfLqP/2n/xR+7dd+LXc8MeEU15D5q7/6q/DpT386e7xYrBPvbIoJjl622PfYvxtvvDFLxMQkR0yGxATCfNliv2Ky5td//deTLsXkXfSKiap4V098HNm73vWubE2ivbc4XrGNN7/5zdl78dF9cSz2fpRdjI9r/8TkUbw7JiaD4no80T+u6xQTOdPba1/72swoJgjj2MR9x4RZTPztnWiMCbtbb701vP3tb8+SROPj41kfYxJlLrfly5eH//bf/ls2lvHOnDiPY9IpJi1ns8VH50X3P/qjP8rc43FE5+jd69yazX7VIUCAAAECBAgQINAPApXOl+V2P3RUHwkQIECAAAECBAgciQLxroS3vOUtyaPSjrRjjXd1PPvZzw7/43/8j/BzP/dzR8ThxQRcvCvn7rvvzpJ0M93e8IY3ZHf9xPV9jsQt3uEUHy9Y9hjCuTzeuA5SvJPpla98ZZZUshEgQIAAAQIECBA4WgWs4XO0jrzjJkCAAAECBAgQIHCQBHbv3p20HB/xFu8Sio9qO5K2uF7ObJI9R5LBoTyWeCdS8d8sxjvK4iMNY4LJRoAAAQIECBAgQOBoFvBIt6N59B07AQIECBAgQIAAgYMgENfeuf3227M1f+Kjx+Kj2OJPXCtm1apVB2GPh6fJ5z3veSH+2A6dQHwMXXwM4c/+7M9mjyqMa1h95CMfyR5HGMtsBAgQIECAAAECBI5mAQmfo3n0HTsBAgQIECBAgACBgyDw/Oc/P3z5y18Ov/d7v5c9riyuX/TOd74zvO1tbzsIe9Pk0SQQ1y2KScP3v//92V09K1asCK973euyNYsGBwePJgrHSoAAAQIECBAgQCARsIZPQqKAAAECBAgQIECAAAECBAgQIECAAAECBAgQINBfAtbw6a/x0lsCBAgQIECAAAECBAgQIECAAAECBAgQIECAQCIg4ZOQzLzgxhtvDPHRAsPDw+Hiiy8O3/rWt2beiBoECBAgQIAAAQIECBAgQIAAAQIECBAgQIAAgVkKeKTbLOGmq33iE5/Inhn94Q9/OEv23HDDDeGTn/xkuO+++8Lxxx/ftfVWqxUeffTRsHjx4lCpVLrGCyBAgAABAgQIECBAgAABAgQIECBAgAABAkeDQLvdDtu3bw8nnXRSqFbdv9JtzCV8ugl1eT8meZ773OeGD3zgA1lkTODERUSvvvrq8Ju/+Ztdaofwgx/8IIu3ESBAgAABAgQIECBAgAABAgQIECBAgAABAqnApk2bwimnnJK+oSQnUOcxe4HJyclw++23h7e+9a17GolZxssvvzzccsstPTUc7+yJ2wvCT4Z6GOipjiACBAgQIECAAAECBAgQIECAAAECcyFQqfvz4Fw4aoMAgYMj0GhPhX9sfi57Qpatu4ArenejfUY88cQTodlshpUrV+Zi4ut77723tN7ExESIP9NbvB0tbjHZU69I+JSiKSRAgAABAgQIECBAgAABAgQIEDgoApWKPw8eFFiNEiAwpwKWQ+mN00PvenOas6jrr78+LF26dM+Px7nNGa2GCBAgQIAAAQIECBAgQIAAAQIECBAgQIDAUSsg4XMAQ3/ssceGWq0WtmzZkmslvj7hhBNKW46PfxsdHd3zE589aCNAgAABAgQIECBAgAABAgQIECBAgAABAgQIHIiAhM8B6A0ODoYLL7ww3HzzzXtaabVa2etLL720tOWhoaGwZMmS3E9poEICBAgQIECAAAECBAgQIECAAAECBAgQIECAQI8CHtLZI9S+wq677rrw+te/Plx00UXhec97XrjhhhvCzp07wy/8wi/sq4pyAgQIECBAgAABAgQIECBAgAABAgQIECBAgMCcCkj4HCDnq1/96rB169bwjne8I2zevDk861nPCl/84hfDypUrD7Bl1QkQIECAAAECBAgQIECAAAECBAgQIECAAAECvQlU2p2tt1BRB0NgbGwsLF26NFwWrgz1ysDB2IU2CRAgQIAAAQIECBAgQIAAAQIECJQKVOr+PXgpjEICBOaFQKM9Fb7S+JswOjqaLZNi27+AK/r+ffru3fqpa+ekz431D89JOxohQIAAAQIECBAgQIAAAQIECBCYvwLtRmP+dk7PCBA46gXabdeomUyC6kzX9R2NAAAgAElEQVSCxRIgQIAAAQIECBAgQIAAAQIECBAgQIAAAQIECMw/AQmf+TcmekSAAAECBAgQIECAAAECBAgQIECAAAECBAgQmJGAhM+MuAQTIECAAAECBAgQIECAAAECBAgQIECAAAECBOafgITP/BsTPSJAgAABAgQIECBAgAABAgQIECBAgAABAgQIzEhAwmdGXIIJECBAgAABAgQIECBAgAABAgQIECBAgAABAvNPQMJn/o2JHhEgQIAAAQIECBAgQIAAAQIECBAgQIAAAQIEZiQg4TMjLsEECBAgQIAAAQIECBAgQIAAAQIECBAgQIAAgfknIOEz/8ZEjwgQIECAAAECBAgQIECAAAECBAgQIECAAAECMxKQ8JkRl2ACBAgQIECAAAECBAgQIECAAAECBAgQIECAwPwTqM+/LunRAQm02wdUXWUCBAgQIECAAAECBAgQIECAAIGjR6C6ePHRc7COlACBvhOotidD2N533T5sHXaHz2Gjt2MCBAgQIECAAAECBAgQIECAAAECBAgQIECAwNwISPjMjaNWCBAgQIAAAQIECBAgQIAAAQIECBAgQIAAAQKHTUDC57DR2zEBAgQIECBAgAABAgQIECBAgAABAgQIECBAYG4EJHzmxlErBAgQIECAAAECBAgQIECAAAECBAgQIECAAIHDJiDhc9jo7ZgAAQIECBAgQIAAAQIECBAgQIAAAQIECBAgMDcCEj5z46gVAgQIECBAgAABAgQIECBAgAABAgQIECBAgMBhE5DwOWz0dkyAAAECBAgQIECAAAECBAgQIECAAAECBAgQmBsBCZ+5cdQKAQIECBAgQIAAAQIECBAgQIAAAQIECBAgQOCwCdQP257t+KAINDZsPCjtapQAAQIECBAgQIAAAQIECBAgQODIE2jt3HXkHZQjIkDgiBFotaeOmGM5FAfiDp9DoWwfBAgQIECAAAECBAgQIECAAAECBAgQIECAAIGDKCDhcxBxNU2AAAECBAgQIECAAAECBAgQIECAAAECBAgQOBQCEj6HQtk+CBAgQIAAAQIECBAgQIAAAQIECBAgQIAAAQIHUUDC5yDiapoAAQIECBAgQIAAAQIECBAgQIAAAQIECBAgcCgEJHwOhbJ9ECBAgAABAgQIECBAgAABAgQIECBAgAABAgQOooCEz0HE1TQBAgQIECBAgAABAgQIECBAgAABAgQIECBA4FAISPgcCmX7IECAAAECBAgQIECAAAECBAgQIECAAAECBAgcRAEJn4OIq2kCBAgQIECAAAECBAgQIECAAAECBAgQIECAwKEQqB+KndjHoROon7p2TnbWWP/wnLQTG6mvXT1nbc1VQ42HH5mrprRDgAABAgQIECBAgAABAgQIEOhfgXarf/uu5wQIHPkCrlEzGmN3+MyISzABAgQIECBAgAABAgQIECBAgAABAgQIECBAYP4JSPjMvzHRIwIECBAgQIAAAQIECBAgQIAAAQIECBAgQIDAjAQkfGbEJZgAAQIECBAgQIAAAQIECBAgQIAAAQIECBAgMP8EJHzm35joEQECBAgQIECAAAECBAgQIECAAAECBAgQIEBgRgL1GUULPmgCtdPXhVpt6MDbn5g88DbmaQvtwYF52jPdIkCAAAECBAgQIECAAAECBAj0p0ClVuvPjus1AQJHhUCl3QqhcVQc6pwcpDt85oRRIwQIECBAgAABAgQIECBAgAABAgQIECBAgACBwycg4bMf+69//evhZS97WTjppJNCpVIJn/nMZ3LR7XY7vOMd7wgnnnhiGBkZCZdffnl44IEH9tOitwgQIECAAAECBAgQIECAAAECBAgQIECAAAECcy8g4bMf0507d4YLLrgg3HjjjaVR733ve8P73//+8OEPfzh885vfDAsXLgxXXHFFGB8fL41XSIAAAQIECBAgQIAAAQIECBAgQIAAAQIECBA4GALW8NmP6ktf+tIQf8q2eHfPDTfcEH77t387XHnllVnIX/zFX4SVK1dmdwK95jWvKaumjAABAgQIECBAgAABAgQIECBAgAABAgQIECAw5wLu8Jkl6YYNG8LmzZuzx7hNb0uXLg0XX3xxuOWWW2bZqmoECBAgQIAAAQIECBAgQIAAAQIECBAgQIAAgZkLuMNn5mZZjZjsiVu8o2fvLb6efi/3xj+/mJiYCPFnehsbGysLU0aAAAECBAgQIECAAAECBAgQIECAAAECBAgQ6FnAHT49U81N4PXXXx/inUDTP6tWrZqbhrVCgAABAgQIECBAgAABAgQIECBAgAABAgQIHLUCEj6zHPoTTjghq7lly5ZcC/H19HtlTb/1rW8No6Oje342bdpUFqaMAAECBAgQIECAAAECBAgQIECAAAECBAgQINCzgEe69UyVD1y3bl2W2Ln55pvDs571rOzN+Hi2b37zm+HNb37zPlsdGhoK8ae4NR/cECqVgWLxEfG68fAjR8RxOAgCBAgQIECAAAECBAgQIECAwJEm0G40jrRDcjwECBxBAu22a9RMhlPCZz9aO3bsCA8++OCeiA0bNoQ77rgjrFixIqxevTpcc8014V3velc444wzQkwAvf3tbw8nnXRSePnLX76fVr1FgAABAgQIECBAgAABAgQIECBAgAABAgQIEJhbAQmf/Xjedttt4YUvfOGeiOuuuy77/69//evDxz72sfAbv/EbYefOneFNb3pT2LZtW3jBC14QvvjFL4bh4eH9tOotAgQIECBAgAABAgQIECBAgAABAgQIECBAgMDcClTanW1um9TaTATiY+CWLl0aLgtXhvoR+ki3mXiIJUCAAAECBAgQIECAAAECBAgQIECAAAECUaDRngpfDZ8No6OjYcmSJVC6CFS7vO9tAgQIECBAgAABAgQIECBAgAABAgQIECBAgACBeS4g4TPPB0j3CBAgQIAAAQIECBAgQIAAAQIECBAgQIAAAQLdBCR8ugl5nwABAgQIECBAgAABAgQIECBAgAABAgQIECAwzwUkfOb5AOkeAQIECBAgQIAAAQIECBAgQIAAAQIECBAgQKCbgIRPNyHvEyBAgAABAgQIECBAgAABAgQIECBAgAABAgTmuYCEzzwfIN0jQIAAAQIECBAgQIAAAQIECBAgQIAAAQIECHQTqHcL8D4BAgQIECBAgAABAgQIECBAgAABAkeoQLV2hB6YwyJA4IgQaLdC6PzP1puAO3x6cxJFgAABAgQIECBAgAABAgQIECBAgAABAgQIEJi3AhI+83ZodIwAAQIECBAgQIAAAQIECBAgQIAAAQIECBAg0JuAhE9vTqIIECBAgAABAgQIECBAgAABAgQIECBAgAABAvNWQMJn3g6NjhEgQIAAAQIECBAgQIAAAQIECBAgQIAAAQIEehOQ8OnNSRQBAgQIECBAgAABAgQIECBAgAABAgQIECBAYN4KSPjM26HRMQIECBAgQIAAAQIECBAgQIAAAQIECBAgQIBAbwISPr05iSJAgAABAgQIECBAgAABAgQIECBAgAABAgQIzFsBCZ95OzQ6RoAAAQIECBAgQIAAAQIECBAgQIAAAQIECBDoTaDeW5goAgQIEDhQgfqpa7s20a7XusYcSEBlYnJW1RsbN82qnkqHXqC+dnXXnTYefqRrjAACBAgQIECAAAECBI4OgUrt4P4eenQoOkoCBA6WQKXdCqHzP1tvAu7w6c1JFAECBAgQIECAAAECBAgQIECAAAECBAgQIEBg3gpI+MzbodExAgQIECBAgAABAgQIECBAgAABAgQIECBAgEBvAhI+vTmJIkCAAAECBAgQIECAAAECBAgQIECAAAECBAjMWwFr+MyToamvOSXUq0MH3ptK5cDb6LTQ2LBxTto50hqpr1szZ4fEuDfKXtYj6a2lNKq9cCQt7KGksnuih6g0pLH+4bRwjkp6WR8o7mq2x1w749SuPa1MTnWNme1aQPU1qw5a210bPsCAXq4bvVwPamee1lNP2j18DvQyns0H1ve0v2JQT/1s9fbw3eaDG4rN9/S6l+tGe2gwbava/TO0+f0Hknq1c89KyooFxXGp7txdDCl93cvcKK14EAt7GePKVCPpQdmx9DJWoWROl7WV7LCHgtrp65Ko4rwr6+NcroNVvL7N9jqZHEinoNfPhmLdXj6vylxCu11sKnk9l8eXNN5jQfG63B5IfyVq3v9Q0lr1vLPzZbX0mlHZOZ7Umzp5Wa5samG6v2qju93wD8aStpuL8r8/TC1Lf59oLEj/jV+lmW9qcCz9DB94dDTZXxgcyJW1FqTX0tqT25N67ZF8v5p335fElJ2PobCmRGU8/Q5WNn6heI0vm5slZZVd+fGbD/M1gSopKF5HspBqftzLnMrmeUnzSVHZWBWvnUmlHgvKvqMUP7NL58FwOverO3bl9jrba3fxmhEbnavPoR5ZDntY2edJezg9/0Mjf3EpWz+0tXRhcjyt792blCk4tAIbf+uiQ7tDeyNAgMAMBJrjne9o7/nkDGoc3aHpt/+j28PREyBAgAABAgQIECBAgAABAgQIECBAgAABAgT6TkDCp++GTIcJECBAgAABAgQIECBAgAABAgQIECBAgAABAnkBCR8zggABAgQIECBAgAABAgQIECBAgAABAgQIECDQ5wISPn0+gLpPgAABAgQIECBAgAABAgQIECBAgAABAgQIEJDwMQcIECBAgAABAgQIECBAgAABAgQIECBAgAABAn0uIOHT5wOo+wQIECBAgAABAgQIECBAgAABAgQIECBAgAABCR9zgAABAgQIECBAgAABAgQIECBAgAABAgQIECDQ5wISPn0+gLpPgAABAgQIECBAgAABAgQIECBAgAABAgQIEJDwMQcIECBAgAABAgQIECBAgAABAgQIECBAgAABAn0uUGl3tj4/hr7u/tjYWFi6dGm4LFwZ6pWBeXMs9bWr56wv7aHBOWmrPVSfk3ZiI5WJxqzaqkzNrl7ZzhrrHy4rVnYIBeqnrp3d3prNWdVrbNw0q3oqza1AL+Pey/lZO31dTx2rNFs9xXULamzY2C0ke3+ujq+nnfVxUK/jlxxirZYUhVb3MW4+sD6tN4uS2lmn91arcJ1qPrihp3r1NatycWXXrdnOscqF56Z9qPbwb4/KfAv12rVK0nbt6V1JWbGged+DxaLkHGoPl3yP6eHrc2X3RNJ2KDnedjXf97KxKpuv7QVDufYrjXQeNu+5P+lD5dkl41CIai5Kj7m+PX88rcH0XKg/PpprqT2Yfrdt3v9Q0qdiQfW8s4tFoXXXvUlZcS62Fg0nMa0F6bFMHJO327ky/Y6545R0To2fmP8euGh9Wm/xpnQcahP5X7d2H5vO+/ru9FeyiaX5uBX3pnNqcOvO/DGXzLGp5SUuhXNm5KEnErvtF6xMyoa3TubKdp2Yt4xvNgdTu6HR/Hen5mBqMLkoLRt5Km++/eTUfOHj6feyoaencv2sTqQx7Vq6v+qufL3aaMG302p7JH/MzcWpQXVH3il2pvOLd95zIo0JZZ8xhXrNFQvz7XReterpsTQW5c+/wafGk3q7Tl6QlNV35+fw8KPbk5jdpyxOyuq7CsbpNAhTi9Lxq07lXSYXp8ey4LH83K800/OlOpWOcXNh3mBycXpNaqeXslAbzxtMLE/7vXNl2s/jvlswLjEYfHQssQv1fCfKPtNKPz8q+R1MHjeStD25OD3AaiPvN/x4em2pj+WPpXn3fUnblYvOS8p2n5ifU7WJ9Jo49Hj6+dxYWvxMS8d44IdPJfubXHNMrmxw45NJTOP4pUlZ/Yn8vJ46IY0p21+xocaJy4tFIdz6vbSsUFI754wkpvn9B3Jl9XVrkpjSgsL3pLLvbqX1CoUXficdq17qiSFAgMChEJjYMRVueMHnw+joaFiyZMmh2GVf7yP9ltLXh6PzBAgQIECAAAECBAgQIECAAAECBAgQIECAAIGjT0DC5+gbc0dMgAABAgQIECBAgAABAgQIECBAgAABAgQIHGECEj5H2IA6HAIECBAgQIAAAQIECBAgQIAAAQIECBAgQODoE5DwOfrG3BETIECAAAECBAgQIECAAAECBAgQIECAAAECR5iAhM8RNqAOhwABAgQIECBAgAABAgQIECBAgAABAgQIEDj6BCR8jr4xd8QECBAgQIAAAQIECBAgQIAAAQIECBAgQIDAESYg4bOfAb3++uvDc5/73LB48eJw/PHHh5e//OXhvvvuy9UYHx8Pb3nLW8IxxxwTFi1aFK666qqwZcuW/bTqLQIECBAgQIAAAQIECBAgQIAAAQIECBAgQIDA3ApI+OzH82tf+1qWzLn11lvDl7/85TA1NRVe8pKXhJ07d+6pde2114bPf/7z4ZOf/GSI8Y8++mh45StfuZ9WvUWAAAECBAgQIECAAAECBAgQIECAAAECBAgQmFuBSruzzW2TR25rW7duze70iYmdH/uxHwujo6PhuOOOCzfddFN41atelR34vffeG84555xwyy23hEsuuaQrxtjYWFi6dGm4LFwZ6pWBrvHdAmpnntYtpLf3K5Xe4nqIai0e7iGqh5A5nKq1p/9f0q6HPf+/kDnsQ2PDxhntWvD8EaifunZWnWmsf3hW9VSanwL1tat76ljj4Ud6ipuroPqaVV2bamzc1DWmLKCXtsvqFctmvf95al48vvnwunbuWflu9Pr51Wjm6jXvfyg5nNoZpyZlxYLmA+uLRaF2+rqkLNRqaVmxpKzvhe8pU8cvLtYKlVb3r7i17eNJveqOfFlrUfo9pjI+ldQrFpTaPePMYlho1/P//qrSaCUxYaqRlBWNK899ZhozXE/KphalZcWg2kTah8GndufCiv2Ob9a2juZimiuWFJsOoeyfmxV21x5Ig+pPbE/aKo5Neyj9Lj21ZDCpt/vYfNzCH6bz4MnzRpJ6i3+YPz8mF6X93HFKWjawIz8XWwPp9+zaRDpfJ5bl4xZvSsdlaDTfp4ml6Tk1sCutt/2k/DxY/MN0ju0+Jm2rWpj69ZJ+D2zP9ymbG5P5Pjx9RjoutYmEPBz3f/JPThh99vFJ0IJH0/GrNPOeA5u3JfWmTliWlFWnCn0vuf60b787V696wTlJO62RdC7WC31oL0znWJhMry2tJfm4ZknbraF0rAa35n/fmTx2YdLPsTXpOBz/lR/m4rY976Sk3tRIyRyeypsvuys133Zuat4Yzrc1uCOdr8NP5ufnU+cMJX0qLSicViNPpW2PF86z2E5jYb5PSzamc3pwrKTs6fwkfvyiRUm3hral5/qCx/Pj3k55O59pSVNJQeePO2lZyWfh6Lr859ruY9MdFq83Q9vSa8Tgl25L9jd5xUW5ssHRySRm25npXBwpjHG1MJ9iI2Or0vNqxb35z6bmcHou1G++PelD40UX5srKvjMUz6FYoXhuV0d3JW2Havo50FyaP48rU+mANhfmj6++Pb0oVsfS/bUH8/Wa9z2Y9qmHki89ekcPUUIIECBweATGtrfC8jPXZ3+LX7Kk5HeMw9OtebvX9JNo3nb18HcsTqq4rVixIvvv7bffnt31c/nll+/p3Nlnnx1Wr16dJXxsBAgQIECAAAECBAgQIECAAAECBAgQIECAAIFDIdD9n/gdil70wT5arVa45pprwo/8yI+E8847L+vx5s2bw+DgYFi2LP8vlVauXJm9V7ZNTEyE+DO9xTt8bAQIECBAgAABAgQIECBAgAABAgQIECBAgACBAxFwh0+PenEtn7vuuit8/OMf77FGedj111+fPcJt+mfVqlXlgUoJECBAgAABAgQIECBAgAABAgQIECBAgAABAj0KSPj0APUrv/Ir4W//9m/DV77ylXDKKafsqXHCCSeEycnJsG1b/vnEW7ZsCfG9su2tb31r9rzB6Z9Nm2a3jkJZ28oIECBAgAABAgQIECBAgAABAgQIECBAgACBo1NAwmc/497uLHoYkz2f/vSnwz/8wz+Edevyiw1feOGFYWBgINx88817WrnvvvvCI488Ei699NLSloeGhrLFpfb+KQ1USIAAAQIECBAgQIAAAQIECBAgQIAAAQIECBDoUcAaPvuBio9xu+mmm8JnP/vZsHjx4j3r8sTHsY2MjGSPZXvjG98YrrvuurBixYosiXP11VdnyZ5LLrlkPy17iwABAgQIECBAgAABAgQIECBAgAABAgQIECAwdwISPvux/NCHPpS9e9lll+WiPvrRj4Y3vOENWdn73ve+UK1Ww1VXXRUmJibCFVdcET74wQ/m4r0gQIAAAQIECBAgQIAAAQIECBAgQIAAAQIECBxMAQmf/ejGR7p124aHh8ONN96Y/dgIECBAgAABAgQIECBAgAABAgQIECBAgAABAodDoNJJanTPahyOnh0l+xwbG8seDXdZuDLUKwNH5FHXzjh1To6r+cD6OWnnQBqpnXX6gVTP1a1MNWbcVmP9wzOuowIBAgSKAvU1q4pFyevGxk1J2aEuqK9bM6tdNjZsnFW9XirVzjkjCauMTyZlxYK56lPtGWcWmy593Vo4lCuv7pwojSsWtkby30V2n7SwGBJaA5WkrFgwvDU1qe2eKoaF9m13JWXFgvqpa4tFofh5WDYu7YFaUq9YUNmd9rNz63YurLUgbxnfrD01Vmyqp9dl51XS90YzaavsO1DRpbVoOKlXmUrbKs6NpFKnoLptZ1I8dfKyXFmrli4FOrR5ey6mec/9STu1M09Lypr3P5Qr6yUmaaRTUDs9v95mjJk8ZXkSumvlYK5s9zHpsUwtTqqFSitfVu3xq9zE8vyvW9WJ9BxacV86Vku//Whuhz/8mfTavXBzvt748vRYKiW/7VULU/+YO7YlBzyxsuT8r+f7vv2U9N8PLthagOq03C6cjrXxtFOD29LzcddJ+XndTunCgi1pvYGnduWOpzqWfx3fbC1blBxzazDf0XbJPK+O5we+0kzHrjWc/l7XWJSfd82hdKyGH0/7GSr5g649kV5/Jk9ZkRzLwJP583h81dIkpux63hzM96u+Kz2+qUXp9XXo6bzLxIp0bpSda8U5vH1VWm/nSfn5sqTk18JaycfcwK78XNy+Ou138VyISMX5WTz3Y0zZ+d8YyRPX0qkZFm5OLxzVyXw/a7vTmN0npNf4BZ/+Zm6HZd/vWkvT87g9lJ+fO09ZkMyNxnB+3i29P399jxXKPmN2rypcPNNTPYz8oKStZj7wqWel1+4V33o87eex+f1VbvluEtO87DlJWe2r/5QrSz6LO+82lqcu9a35vjeOK/mwKDnmUM17ltnVRnfn+tS878Gk3/W1q5OyxsOPJGWzKfj4pm/Mppo6BAgQOCQC27e3wrpzNofR0dFsSRXb/gXSb5n7j/cuAQIECBAgQIAAAQIECBAgQIAAAQIECBAgQIDAPBOQ8JlnA6I7BAgQIECAAAECBAgQIECAAAECBAgQIECAAIGZCkj4zFRMPAECBAgQIECAAAECBAgQIECAAAECBAgQIEBgnglI+MyzAdEdAgQIECBAgAABAgQIECBAgAABAgQIECBAgMBMBSR8ZiomngABAgQIECBAgAABAgQIECBAgAABAgQIECAwzwQkfObZgOgOAQIECBAgQIAAAQIECBAgQIAAAQIECBAgQGCmAhI+MxUTT4AAAQIECBAgQIAAAQIECBAgQIAAAQIECBCYZwISPvNsQHSHAAECBAgQIECAAAECBAgQIECAAAECBAgQIDBTAQmfmYqJJ0CAAAECBAgQIECAAAECBAgQIECAAAECBAjMM4FKu7PNsz4dVd0ZGxsLS5cuDZeFK0O9MnDAx15fu/qA24gNNB5+ZE7aiY3Uzjh1btqqVOamnU4rzWULZtVWdbI5q3pllVp33FNWvN+y6gXn7Pf9fb3Z+u739/XWvC+vr1szqz42NmycVb1eKs32PJvL86qXfoopF6ifurb8jb1KG+sf7hpzqAN66Xfs03zse9Gq13PoUJ8zvfRrtn0qXstme42qnXNGkbP0dXuwnitv13v7Nz7VXZP59pqttP1ePo+r6Wd2c/Fw0tbUksGkrFhQm0r7MLB5ey5s8sQlxWqhtmsqKUsKvnVnUlQ796xcWWtB2sd2enhJO9XxdP/V7buTuPZAYawG0++DlfGJpF7zwQ1J2cEsqK9ZlWu+PTyU7K4ykZ8/7YUjSUyrMDdjQHWykYtr3n1fUq+soHhetYdLxmqgllRtDeeNWyP5MYgVGsNpvaHH8+NXaaVzs11Nz7X2UL6t5nC6v60XpOdHfTz/a1pzKJ14tULM1OI0ZtEP0n5OLM3HLdySfscdfqJwPei47D4+P+6Do/mxi3Y7T0rncKPQ94WPp/sb2JG2NfDkrtz4NZanc6q+bTwd4+J330vOT2JqT+fbzgIK167itTQL2bYj36eNm9K2T1+XlIXCud285/4kpnLReUlZdSw/75r3P5TElH02tBbmx6qxOD0/qhPpOEwuzccNfeHbyf6q55+dlE2tyP9+Nbglf52OFSZXLk7qtWv5uTixPD0/Rrbm5+Lo2pLzZSL9s8bI4/nr8PZVqcHiH6TzPBSaag2m53V1Mj2vOn9cyR1fu+Tzsp02FUbWP5mr1zwmdSrOg1ihceyiXL2y31Xb304/56rPekZ+HEquZcXPvspUOleq29NzLxQMGsemx1K55bvJPCh+xjRWLktiajvSz8LkHC05liSm03L7truS9nspKM79yu50/jQfWJ80VTy+4md/rFBp5efPof5O37o5/zmfHIQCAgQIHEaBxs6J8PWXfTCMjo6GJUvS3/0OY9fm5a5Lvm7My37qFAECBAgQIECAAAECBAgQIECAAAECBAgQIECAwD4EJHz2AaOYAAECBAgQIECAAAECBAgQIECAAAECBAgQINAvAhI+/TJS+kmAAAECBAgQIECAAAECBAgQIECAAAECBAgQ2IeANXz2AXOoiqfX8HnxWdeFei19FvpM+/CTQDcAACAASURBVFH2fNqZthHj56qd2Fal8Fz22fQna6fk+bizbWvjVStnVfXFV6XPsJ5VQ51KN288c8ZVj/uz2a09NPJo/lnjM97xXhWqYyXPO++hwdbi9JnrPVQLo89In9/cS73Hfix9rnaxXnVidjnvtX+brstQbLvs9fBDW8uKc2WzXR+ka8P/HFA787ReQ3Nx7ZH0mefFhiaP6T4/B8bSZ28X2yl7Xds6WlY8q7JGybP2Z9NQ7Rm9ncPjp3R/vmx9e/c5NbB5W0/dLHsmeLFi2fP/izFlr6vnpc/sT+J6OK2qozuTamUFczVWZW2XlZWtgVCMK1t/oOzZ/sV6g0/ln3Nfe2KsGFL6unhN6HUtp1B4hn3ZWiplOyyupVD2zP7m9x8oq5orK+tn2dwsW5uma+OdgF1n5z/Hpxal660MP9n9vBp8LB2HyZPy5+yu49PrXzvdXdLtSrrcQahPpJ9N1an8M/sHRtN+13ekawRMrsh/ru4+Ll03pWytiFY9XeOl2Pn6eNrP4Sfz66sMbXq6WC00j8mvJ1FppmtqlK4nUVyjsKReZTJ1CbXCBaeRopeupVBY87I9kn4HL5vnxfWdiudLBKk0UrtQ6Ht7Qcn+FqVlxXWoytZ/bLzowtw4tAbS8R3ZlM7z3avy87w4D2OjZW0V19lpl8ynsnVLmkP5sarvTNfrqW9PvyMU10Rqf+fuZN4V19SIAcXfZcq+Rxzqz5ik44e4oGyduuJnzCHu0iHfXXEdldiBsnlQXB+s13X3iu23y9ZkK1kb71Cv1TJX8L3MqV5i5qo/2jkwgdmuF3xge1WbAAECvQk0mhPhH+58rzV8euMKPfxZpseWhBEgQIAAAQIECBAgQIAAAQIECBAgQIAAAQIECBwWAQmfw8JupwQIECBAgAABAgQIECBAgAABAgQIECBAgACBuROQ8Jk7Sy0RIECAAAECBAgQIECAAAECBAgQIECAAAECBA6LgITPYWG3UwIECBAgQIAAAQIECBAgQIAAAQIECBAgQIDA3AlI+MydpZYIECBAgAABAgQIECBAgAABAgQIECBAgAABAodFQMLnsLDbKQECBAgQIECAAAECBAgQIECAAAECBAgQIEBg7gQkfObOUksECBAgQIAAAQIECBAgQIAAAQIECBAgQIAAgcMiIOFzWNjtlAABAgQIECBAgAABAgQIECBAgAABAgQIECAwdwISPnNnqSUCBAgQIECAAAECBAgQIECAAAECBAgQIECAwGERqB+WvdppItC876FQqQwk5TMtqDz73JlWKY1vf/vO0vLZFNbWrJpNtbROde7yk1NL2mn7PZS8dsWtPUT1FtJo13oL3Cvq++1nzrhOrFDdvntW9coqNTZsLCvuWlY787SuMWUBC38wXlbcvaze/Xw6bu0T3dspidj2/eNKSrsXHXvzI92DDnJE8/6HZreH53Wfe63BuTtHi51sbNxULJr16/ra1V3rNh6eu7GaXNL9XG/VK137VH+q+5yOjTTve7BrW7MNaN11b9eq1fPO7hrTWrqwa8zhCGh+/4Guux2snJnETJy4OCkrFlTGG7mi2c6xxvqHi0339Lp+6tqe4honLsvF1XZM9FSvGFTWz3rJ94Fezu2yvk8sz3+FHVuTXn8WD/VwXu0YLnY9DP5gW97gK+uTmF7m+RPPXZ7U2/z8tJ8D2/P9PPmrraTewNbJpKy+I39tWbZ5exITGs2kbNtzun+G7To+vW7VJvPfnYYqJb63fi9vt25Nsv/8mfD/vz2xMn9NGF+R/oqy8IfpXKz+43fy+3tGen4mHegUNI9dkiseP24kCRs49tlJWW3LWK6sdXdvn6n1gkNlR/rdZvzERen+dk3lj++MU9OYTU/ny0q+LzdWpNfc7avynymLf5COzOBTaT9rT+3I7a9SMsfGnnNi0s/RdYX5+lB6LtTH0v1Vd+XHffsrLk7a3nFyOl/bhel54lfS40sa6hTUzjo9V9weGUzCWnfck5T1Q8FsP3fKrt3thek507zn/nnP0MtnTjyI2f6+02v78x6qpINln8Vln/XFqu3B3r6/FutVnpv+7lHdlX4WNu++L1e1/fwLik2Fzh9akrL64/nreSi5dvbynbpWcl1uPpB+byieR2Xfhatju5J+FgvKPGf9+12h8XaJQXH/XhMgQOBwCbTb6XfHw9WXftgvrX4YJX0kQIAAAQIECBAgQIAAAQIECBAgQIAAAQIECOxHQMJnPzjeIkCAAAECBAgQIECAAAECBAgQIECAAAECBAj0g4CETz+Mkj4SIECAAAECBAgQIECAAAECBAgQIECAAAECBPYjIOGzHxxvESBAgAABAgQIECBAgAABAgQIECBAgAABAgT6QUDCpx9GSR8JECBAgAABAgQIECBAgAABAgQIECBAgAABAvsRkPDZD463CBAgQIAAAQIECBAgQIAAAQIECBAgQIAAAQL9ICDh0w+jpI8ECBAgQIAAAQIECBAgQIAAAQIECBAgQIAAgf0ISPjsB8dbBAgQIECAAAECBAgQIECAAAECBAgQIECAAIF+EKj3Qyf1cQYCtcoMgvcdWl+3Zt9vzvCd5rJFM6xRHl5pt8vfOISlK2rjc7a3ZfVdM29rlgaN9Q/PfF/zpEZllsM+tKz7WC0empjVUT5Rn915Vl+zquv+Ghs3dY05HAGtwVr33fYwP2tP7ejeTklEo6RstkWNhx+ZbdVcvcbyBT21MzXS/d9W1He1urfVbHaP6UT0cv1ubNjYU1vFoF7abg71MFcqvZ1Dxf3Ntt/F4ziQ160Fg0n12nj3sWnddW9S71AWtAd6+8rXGsjP11pzlhfhkoMru77V164uicwXNZcvTGIaw/k5tHhTeg4teqT750BlMr26NB9Yn9vf5BUXJfsf3rwzKSsW7FidzvOhJ9OyE745mas6vGm02FQI1bRe/fF8XHvBcFJv12krkrLmQNpWMeiYu1O7oQ1bc2Fl41lspz04UCwKZWM+UejTwI50PAc3PZm0VRy9yu70c7127llJvR0nd79+13bkxyU20rz/oaStYkH1/LOLRaHxvfz5v/vK5yUxA9vT60hlYiofV3Ietwfz53ZrOD3Xp5ak4zA0mjceemJ30qfS8+PBDUlcsWDyR08uFoXhJ/LXkpFHS/ZXcr2ZPHFJrq0dJ6WfMbuPS3YXjrkr71kp+QytnXlaUrF4rZxcMZLEDBeuW7P9XlH8jIs7mu3nXO2MU5N+VqbyZ8hs+xlKPrOb99yf7E/BkS3Q6++T1QvOyUE0v/v9WcG0v31nUi+9SiYhobYzvXa3SvpQKZzHZZ9XaetpSfE7QxrxzyXV/Per6lj6t4B2PX99ay1OP6va37l7n7vwBgECBAgQmBbo/lcoVgQIECBAgAABAgQIECBAgAABAgQIECBAgAABAvNaQMJnXg+PzhEgQIAAAQIECBAgQIAAAQIECBAgQIAAAQIEugtI+OzH6EMf+lA4//zzw5IlS7KfSy+9NHzhC1/YU2N8fDy85S1vCcccc0xYtGhRuOqqq8KWLVv206K3CBAgQIAAAQIECBAgQIAAAQIECBAgQIAAAQJzLyDhsx/TU045JbznPe8Jt99+e7jtttvCi170onDllVeGu+/+/5+beu2114bPf/7z4ZOf/GT42te+Fh599NHwyle+cj8teosAAQIECBAgQIAAAQIECBAgQIAAAQIECBAgMPcC6aqec7+Pvm3xZS97Wa7v7373u0O86+fWW28NMRn0kY98JNx0001ZIihuH/3oR8M555yTvX/JJZf07XHrOAECBAgQIECAAAECBAgQIECAAAECBAgQINBfAu7w6XG8ms1m+PjHPx527tyZPdot3vUzNTUVLr/88j0tnH322WH16tXhlltu2WerExMTYWxsLPezz2BvECBAgAABAgQIECBAgAABAgQIECBAgAABAgR6EJDw6YJ05513ZuvzDA0NhV/6pV8Kn/70p8MznvGMsHnz5jA4OBiWLVuWa2HlypXZe/varr/++rB06dI9P6tWrdpXqHICBAgQIECAAAECBAgQIECAAAECBAgQIECAQE8CEj5dmM4666xwxx13hG9+85vhzW9+c3j9618f7rnnni619v32W9/61jA6OrrnZ9OmTfsO9g4BAgQIECBAgAABAgQIECBAgAABAgQIECBAoAeBSruz9RAn5J8F4iPcTjvttPDqV786vPjFLw5PP/107i6fNWvWhGuuuSZce+21PZnFx7vFO34uC1eGemWgpzr9FlQ9/+w56XJ1++45aSc2cs9vHj+rtq6/7K9nVa+s0ju/+9NlxfstO/XtszSYy9O8Nrs8cfP7D+z32Pb15gM3Xryvt/Zbfvy6J/f7fnxz8vPHdY0pC1i6fqqsuGvZggee6BrTrte6xpQG9Fhv17qlpdXnonDhPY93baaxYWPXmIMdUL3gnK67GDtzSdeYoacbXWNiwPAPx7rGtRYMdo2p7prsGpMFVLufo5Vd413bmjohfwdrrFB/amfXes37Huwac7ADauee1XUXjaXDSUz96V1JWbFgtteyYju1c84oFpW+Hl+VP2db9UppXLFweGthjButYkhPr9vfuTuJa7z4wqSsWLDj5HROj2xNz5nBse7X09ZgOqerk92Pp7az+znz9HnpuV6byH81Hn4y7XdzJO1T0WBgR1qvtistaw7lr/utwfRzYGB7eizVHfkxbg+k9Yp9yl53pwvVkmtEa8mCXHOtO2b3D6BqZ56WdKu1ZCQpKxbUntpRLArtkaF8n0bS79K1J9JrcOPhR3L1amednrTdOHZRUtYunH4DT6XXjMay9FhqOyZybVUm0nkweVI6Fwe25ttv3XVv0qfKhefmj+Xp9DrdWpz2afKY/HgO/XA0aTuUfLcoXjuLxxYbaSxP91ff1v1zp7EkvS4Pbsp/n9t+wQlJPwe2N5Oy+j/cni+75Pwkpjaafq9uD+XnUGVn2u/KZP661R5M513zgfXJ/urr1uTLWunJ2NjY/R8D1s44NWm7MpXOqeI8TyodYQX1NT08OaPkO9J8+G56hA3FvDuc+qlr0z51Htm/99bLuZc2cmSV1NeuPrIOyNEQIHBECTRaE+HvN96Y3UCxZEn6vfmIOtg5OJjuv63OwU6OpCZanS/mcR2eCy+8MAwMDISbb755z+Hdd9994ZFHHsnW+LERIECAAAECBAgQIECAAAECBAgQIECAAAECBA6VQP1Q7agf9xMfv/bSl740rF69Omzfvj3cdNNN4atf/Wr40pe+lN2V88Y3vjFcd911YcWKFVl28eqrr86SPZdcckk/Hq4+EyBAgAABAgQIECBAgAABAgQIECBAgAABAn0qIOGzn4F7/PHHw+te97rw2GOPZQme888/P0v2/MRP/ERW633ve1/nyTnVcNVVV2V3/VxxxRXhgx/84H5a9BYBAgQIECBAgAABAgQIECBAgAABAgQIECBAYO4FJHz2Y/qRj3xkP+921mUYHg433nhj9mMjQIAAAQIECBAgQIAAAQIECBAgQIAAAQIECBwugUq7sx2undtvCGNjY9ndQ5ev/ZVQr+YXnp2NT3s4XSR5Nu1UducXl51NG9N1igvqzratnhcj7mEHj/zUih6i0pBdp6WLJqdRvZXUn0gXeO1W89TPpAvxdqsT369vKVmIt5eKZTGV3hYML1bdduHKYlFPrx/70Z7CkqCRzd0Xr15+X7rIb9JQScHIE7ObB61692XTGiPd+13SpbD50t7qLX3WE2XVu5Zt+96xXWPWfbb7/Kxtn921pVWyEHexQ+PHp4tEF2Pi68d+pPu/dRgc7T7PV347Xci5bH+DW9KFxotxrQXdr93tHuZPbHf0tPxC3MV9xdc7Tuk+F1fcmy4AvXBj92MpW+A66UOP15H2gvzn4tgZi5OmygoGdqULYRfjBp8qOY+r3ce9MpVeNxqLuo/f6Gn5mNF0jfhiF7PXizbl+7Rwc7r/sopTI/kxbqZroZdVC0Pb8nZl1+D2YPevjiv+Kb0mLdyS9n1wLJ1npR0rFI6vyH+Gbr4kndOD27qP58JH02MZ2J0vq+9O51O7h7my84S0T42RtE/L788bjDyWXkvbtbSt5oLC4vKNtJ9PPSO9Lg7sTI+5aL7wsfyi9PH96mR+/Gq705hKM9922XWrNZjOjepE3qA1mF6na7vSc7ayq/CZMpDWa5e01brjntwhly3o3Vj/cJElfX3J+UlZ2Wd9pUBetIyNlLnUt27Ptb/zrGOS/TUH83Nq+Ml0XMq+W9TH8+NZ35HWGzt1YbK/wbHCPJhI513Z8YXCdb+xMB2rgdGSMS7+qtpK529te/p5vGvtslzfB0vaDmlTIZlnhTkdG6101nTNbc3UIBQWhI/xzQc3JJ4KCBA4+AK1M09LdtK8/6GkrFhQX7emWBQaGzYmZUdKQeNFFx4ph+I4CBA4AgUajfHwf772O2F0dDRbVsW2f4H0t8f9x3uXAAECBAgQIECAAAECBAgQIECAAAECBAgQIEBgnglI+MyzAdEdAgQIECBAgAABAgQIECBAgAABAgQIECBAgMBMBSR8ZiomngABAgQIECBAgAABAgQIECBAgAABAgQIECAwzwQkfObZgOgOAQIECBAgQIAAAQIECBAgQIAAAQIECBAgQGCmAhI+MxUTT4AAAQIECBAgQIAAAQIECBAgQIAAAQIECBCYZwISPvNsQHSHAAECBAgQIECAAAECBAgQIECAAAECBAgQIDBTAQmfmYqJJ0CAAAECBAgQIECAAAECBAgQIECAAAECBAjMMwEJn3k2ILpDgAABAgQIECBAgAABAgQIECBAgAABAgQIEJipQH2mFcQfJIFWq9Nw/Dmwrfn9Bw6sgXlcu/LcZ85Z74aebs+qrVP+bHJW9coqjR87i3zrrd8ra6prWaNrxMEPmPrRE2e1k8UPVWZVb9Gjza71lt7+WNeYsoDGw4+UFXctGzjztK4xT7/o+K4xZQGNBb3N6ckvHVdWvWvZaV97umtMZaq7eWj0EFOypycvXlFSmi/advnurjExoLGt+5w69o7uMbWv/FNP++vliCd+6rld23r0Bb19ZFenujYVTvo/3a9lIw8+kTTUWP9wUlYsqJ5/drEoeb39zKVJWVlBcyA/Dkvv314WlpS1b787KSsWVM9L+zl5/MJiWPL6scsWJGXjZ40nZcWCxd/JH8vav+ttvg48viPXVGN5uv/ivuLrx56fP5ap5/Vmt21Tvt6av0tn8NCT3Y+3/e07k261fvTZSdm2M4aTsl4Klj2U78MZfzmRVGvdcU9SVixoXvacYlF4+qyhXNnouvTcW/SD7tfc47+dmteeyo9n3FF7eDC/v3OXJ33aeWItKavvzPdh6Yb0vF75j+l5HFrd+z5xSnqO7lidH6vaZN4pdnBkS74PA1vGkn63738oKauee1aurF1LvyO1q2lZ64H1uXq1M05N2m7dc39SVrxONWupb+2s05N6zfsezJeVfC9LexlC5aLzcvUai/NjHt8c2Lor3V/BamE7HbvG8Uty9SZWpG23Szo19P383Cj7brNsW+rZOG5xbn/VqfT3l9rW0eRY2vW8cfuUdJ43F6TnWnUifw0aeCp1ai1Ij7nYgcnlaczAWPoNufXd7+eq1tesKjaVvG5s3JSUKSBAYP4INEs+d3rpXWPDxl7CjpiY1mDJh8URc3QOhACBfhdoVVyjZjKGtGaiJZYAAQIECBAgQIAAAQIECBAgQIAAAQIECBAgMA8FJHzm4aDoEgECBAgQIECAAAECBAgQIECAAAECBAgQIEBgJgISPjPREkuAAAECBAgQIECAAAECBAgQIECAAAECBAgQmIcCEj7zcFB0iQABAgQIECBAgAABAgQIECBAgAABAgQIECAwEwEJn5loiSVAgAABAgQIECBAgAABAgQIECBAgAABAgQIzEMBCZ95OCi6RIAAAQIECBAgQIAAAQIECBAgQIAAAQIECBCYiYCEz0y0xBIgQIAAAQIECBAgQIAAAQIECBAgQIAAAQIE5qGAhM88HBRdIkCAAAECBAgQIECAAAECBAgQIECAAAECBAjMREDCZyZaYgkQIECAAAECBAgQIECAAAECBAgQIECAAAEC81CgPg/7dFR2qfHID0OoDBzwsddOX3fAbcQGmg9umJN25rKR1mBtzpqrTcyuqdbA3PVhZPOuGXeiPeMaB6HCJefPqtHKLDu//MGpWe1v4d1butZrPPxI15i5DJg4ZVnX5qaWVLrGlAWsvLU34Npks6x617LKrh5Omnr382Psmcd23VdZwJOXdd9/td2b3Rl/OVm2i1xZu969rcqzz+3aTgzYceqirnGPvrBrSAjtVg9BIZz6qe7nTG1n95h2Lf03IZWLzuvah63PWtw1Zmphd9/YyMpv78y1VR3t7brZurD72Gw7K+3n5p/o7nLSiZuT4xv7+xOSsmLBsgcauaL6aPc5HSuMPWNFrt62M7qfZ7HCrpPz5/qxf9d9HsZ6Szbm+zX4w9Hc/uOLSqP7dWTHy56X1NtxUtr3RY92b2tk8+6krfa378yVNS+9IInZ/tpLkrJiwdiadJ4v3pQ/15Y9kF4zBsa6j19zJP1et+PZK4tdCNtPybss3Jye68fcle5v6LGxXFuthUNJ2zvOXJ6Uja3u/vW/viv9TFm6Ie8wVDI3QrtQbyDdV7tkrNrb88dXezp/7seDqEym52f+rOpcJkcGk+OtnXNGUtb83r1JWbGgbGZWzz87F9ZYPlKsVvp64PEdufLBbenxtZYuSOo2Xnxhrmx8JD2HRrbkz48Fj2xP2qk00jk1fupxubj26fnX8c3aY/l+x7L66HiuXqtknk+uOSbpQ2MkPxeGtqbX8+p4cUQ7v5Mszs/rJy9M266Pp8c3/FS+raFH8+dL0sF/Lqicujb3VmP9w/sKVU6AAIEjSqA51Nv38yPqoB0MAQJ9I9CsukbNZLDS33JnUlssAQIECBAgQIAAAQIECBAgQIAAAQIECBAgQIDAYReQ8DnsQ6ADBAgQIECAAAECBAgQIECAAAECBAgQIECAAIEDE5DwOTA/tQkQIECAAAECBAgQIECAAAECBAgQIECAAAECh11AwuewD4EOECBAgAABAgQIECBAgAABAgQIECBAgAABAgQOTEDC58D81CZAgAABAgQIECBAgAABAgQIECBAgAABAgQIHHYBCZ/DPgQ6QIAAAQIECBAgQIAAAQIECBAgQIAAAQIECBA4MAEJnwPzU5sAAQIECBAgQIAAAQIECBAgQIAAAQIECBAgcNgFJHwO+xDoAAECBAgQIECAAAECBAgQIECAAAECBAgQIEDgwATqB1Zd7fkmUGk051uX5q4/7factTW0vTWrtpojtVnVK6s0uOnJsuL9ljX2++6hebNdrcxqR82BWVULk4tnZ75gcJY7nF03e6rVPogp9laPV/Ol3x/tqa/FoPbIYLEoeV3ZNZGUFQvatdnNnzDWfTwHN/c2V6rj3Q0qjR6uEc3erkn13d3bai/ooa2J3iZQdbL7/qoTPVxNSs6hylT3z5ipRd3HuNf5WhvLz6n2opHilJr16+pUar7qpKe6tlerpr7Hf6f73K8W5lRrsLf5uvSfNuf6tO2Mk7v2MQbUd+Tny4LHexjzTr2Brbty7bdL5kEvHSibh8NPpXNj4YNPd2+umZqHc8/K1as8lrYzdd6Crm23S66dw0/n5/nQ5u1JO+2B7uM3+MRYUm/XCScmZaFwag8/OZXEDBTOhRjQXDyci6tvTfcXTkkNWt0vp2F4W2o+vH5rbn9lc6N5/0P5Pq1dnRxLdSTtQOuue5O42RRUd4wn1dr17mOVVNpHQaVw7WzV0uty6Vh9/4Fci7UzTk32UN2RXkfax+SveUNPTyb12t++M1dWPev0JKYyVXb+L8rFVdJLYmjefV/SVu3M0/LHsnN3EjO57LikrDqVn1PV3ek8Typ1Cmqj+fZrU+mcXnb7lrRq4feGxoaNSUzxWGJAY/3DSZwCAgSOPIHa6etyB9V8cMORd5AzPKLZ/p4/w90IJ0CAwKwEXKNmxpb+ljKz+qIJEPj/2rsTIDmq+2Dgb3ZnD127OgAhgS7MfcWYO+CEAGXF5XLhoEpih1TZDmXHDsEGYsdREhtIuYxDymVCgo3jUNipwiYmif0FfyaxQwz+qEicDiAEOkAXCAlzSELH3v1NT77dTzM9uz07O70z0v66akvaN+/93+tf9+uenf90NwECBAgQIECAAAECBAgQIECAAAECBAgQINBgAQmfBm8A3RMgQIAAAQIECBAgQIAAAQIECBAgQIAAAQIEJiog4TNRQe0JECBAgAABAgQIECBAgAABAgQIECBAgAABAg0WkPBp8AbQPQECBAgQIECAAAECBAgQIECAAAECBAgQIEBgogISPhMV1J4AAQIECBAgQIAAAQIECBAgQIAAAQIECBAg0GABCZ8GbwDdEyBAgAABAgQIECBAgAABAgQIECBAgAABAgQmKiDhU6Xgl7/85ZDL5cJ111030qKnpydcc801Yd68eWHmzJlhxYoVYefOnVVGVI0AAQIECBAgQIAAAQIECBAgQIAAAQIECBAgUB8BCZ8qHB9//PHwjW98I5x55pklta+//vpw//33h/vuuy88/PDDYfv27eHKK6+sIqIqBAgQIECAAAECBAgQIECAAAECBAgQIECAAIH6CeTrF+rwjLR3795w1VVXhW9+85vhi1/84shK7t69O9x1113hO9/5Trj00kuL5XfffXc45ZRTwurVq8MFF1zQEJCBzVsb0u9kdJobGKpbNwOduZpite2trV2lzg7VbdXSX9t2aO2rpJBe1v72YHqlCjUG179YobSxRfl9A6kDyA10pNapVKFvVpX7Zm2bL+R6eit1W1pWuAoybZn+ahVxKgRp3ddZobS0aLAzSq0TVxic2Z5aL1fFfp7fdSA1TjO4+wAAIABJREFUTlxh2stvp9bL7e1OrRNNq27j7T023aprfX9qf0PPPZ+o03raSYmy8oL8/vTt0Nedvq/EcXuOmVkSvm1v+hwqH89ov8/auDfx0vodcxJl5QXvXLatvCg8f3H6vJ27tvRY1r0m2X8icKFgqGt6SXHHm+m+cYOB0mahf0Z13/HpWPNCpWGUlOWPW5pap+3t5D7W19WaaDcwd0airLwgv3N3eVEIUalDuVPcYObL6ftL/8y2ROz+6WVWFY5tLW+nz/8on1zfmVv2J/rrnV26n/fMS46p89Xk/jL43LqSWENnnpyIPfO51xNlfTOOSpQlCipM0aHu0m2V60lu4/zSxSWhKr3XaelKjjOcdVpJu+jnzyWGVE3BwEubE9VaTz0xUVa+D0ctyRUe3Lgp0W5w3caSsvbOUxJ1hjqSf17lly0pqTew4aVEu0oFna2lYx+YPS1RrfWUE0rL+pP7fSWXtjml27P3yLKDRhz1vDMS/YW9pefxqDV5bGl/qyfR7sCC0v7a25LzY+jp5HmnpWy/zg0mj4H7Tjky0d+0l5NzprxSpfeKrccvK6lWaT8oj+N3AgQOPYHyuV1+nI7XaGDTlkNvxSYw4pb+5PF1AuE0JUCAQF0FHKPGx5l8hz6+9od97fiWbe973/vC5ZdfXrKuTz75ZOjv7y8pP/nkk8PixYvDqlWrDnsXK0iAAAECBAgQIECAAAECBAgQIECAAAECBAg0j0DyK2jNM7aGj+Tee+8NTz31VIhv6Va+7NixI7S3t4fZs2eXvDR//vwQvzba0tvbG+Kf4WXPnj2jVVVOgAABAgQIECBAgAABAgQIECBAgAABAgQIEKhKwBU+ozBt27YtfPrTnw733HNP6OxMvz3OKGESxbfcckvo7u4e+Vm0aFGijgICBAgQIECAAAECBAgQIECAAAECBAgQIECAwHgEJHxG0Ypv2fbaa6+Fd73rXSGfzxd/Hn744XD77bcX/x9fydPX1xd27dpVEmHnzp3h6KOPHiVqCCtXrgzx83+Gf+LEkoUAAQIECBAgQIAAAQIECBAgQIAAAQIECBAgMBEBt3QbRe+yyy4Lzz77bMmrH/3oR0P8nJ7Pfe5zIb4yp62tLTz44INhxYoVxXrr1q0LW7duDRdeeOEoUUPo6Ogo/mS1VHrYYC19NeMDClv6Sh94Xct6DbdpST7PtqpwLX3VPTS9qmCHaKVcf23boaXCQ3arIYgqPCy7mnbNWCdX9pDxSmPM1cYbBjuTD5yuFD/qSD4kuVK9RFlr+pWOuQN9iWblBa09tU2+9l3p6zcwo7oHjQ5VeMB0YpxVzPW+o0oftF4eY/j39tfSHxzd8Ub6duk5prrjT1TFVzlyg1XsaOdWeFj3rn2jreZIedu+9O3QMy99e8YBh9pKVyaqrlkYmJl86H35wFsqzIWZT6efnzfNnlceKgzl09e5463SfX/fO+Yk4lQqaH+7v6R47vPJh6FXaheVzdmBzip2jEKgltNPLg2XT7aL+tLncdurpV+IiYO2dx2VGOrAtPR9v9Kb1aHp7aWxKhxfp298I9FfeUHvnApjKrOKWpM73tDc9PkfVbBrfSN5PJj5cunxtX9mBfMKYyh/mH3UmrRsGUweN7o2p+9DvXPLfAtwUUvpuIbWbSznDK0nHFdSlj9uaaJO1FO6TxcrTC+b64lWlQvK4w+8tDlRcXDt+kRZvQpadiW3Z5gzKxE+aqu0F5dWyy9JXvU/UDb2lgrH5fK50PrG/7919HAP5ftKXD705HMlA+g4+7TEuAdnJveD1rdKzwNDs2ck2rX+YneirG1W6fG1fH+KG+QqrF9/2fG8a33ydtgHFqbPx9aTjk+MabDCPpwbSj+eJwIpIEDgkBPIL11cMuZm/PxjslFb+pPvGSZ7DPojQIDAaAItA45Ro9lUKk//66NSqylQNmvWrHD66aeXrOmMGTPCvHnzRsqvvvrqcMMNN4S5c+eGrq6ucO211xaTPRdccMEUELKKBAgQIECAAAECBAgQIECAAAECBAgQIECAQLMISPhMYEt89atfDS2FbzvGV/j09vaG5cuXh6997WsTiKgpAQIECBAgQIAAAQIECBAgQIAAAQIECBAgQGD8AhI+4zB76KGHSmp3dnaGO+64o/hjIUCAAAECBAgQIECAAAECBAgQIECAAAECBAg0SiB5k/BGjUS/BAgQIECAAAECBAgQIECAAAECBAgQIECAAAECNQlI+NTEphEBAgQIECBAgAABAgQIECBAgAABAgQIECBAoHkEJHyaZ1sYCQECBAgQIECAAAECBAgQIECAAAECBAgQIECgJgEJn5rYNCJAgAABAgQIECBAgAABAgQIECBAgAABAgQINI+AhE/zbAsjIUCAAAECBAgQIECAAAECBAgQIECAAAECBAjUJJCvqZVGzSuQyzXv2CY6siiaaISR9n0zanPKHdFWtzF0n3DcuGMNbnhp3G3q3SC3r6emkG37Z9bUbqittm3VeuqJqf0Nrl2fWqeeFfI7dqWGyx+YkVqnUoXeOdU59c2bVql5alnbj59IrZM/bmlqnejxZ1PrVKow7Z0XViouKdvTlVqlWGH//PR5PPfRN1KDRZ3tqXXiCtXsZ9N2zkuN1bMwtUqxwu7j07/L0b2+NTVY6xtvJ+pE+fR2s9cm2yUChVnJogolB44o7a99d3X7eccv9leIVlo01J58C9S9OVlWHuiV47rLi0LLcenHxT1bO0vazd7Ym4hTqSDXN1RS3FbFcSRuMHPu/JJ2exekb7u4wYElpdum438/nhhWVXO9Nbkfdm5P7hv7l6RP3P5jZifG0L71zdKyCu8Rorb07Tl7TfK4/NYZpf3tOi3Zf/fGfYkxlRfkX9tTXlTx944HSo1bLzs7Ue/AouScmb65NP7QM88l2kUV3mu0vZx+fMu/3pGINdRVev5orRC7Xu9Tcmedlui/Ze+BRNlAnd4X5ZcuTsbevDVRVl4wsGVbeVEIW5JF5SWV3qMMVPGepNI5tPWk40vCDx6ZPEblDvSXDyHxe+vryf219c3kPO5bPLekbfuW5P4UtSfPs+07S+d/zzEV5n5L8hif3zdQ0l/UljyWTd+YHMPgnNL3U6096QZxRwMvbU7YKCBA4PATGKjiGH/4rfXYa5QbrN/nLWP35FUCBAiMX8AxanxmyXfx42uvNgECBAgQIECAAAECBAgQIECAAAECBAgQIECAQIMFJHwavAF0T4AAAQIECBAgQIAAAQIECBAgQIAAAQIECBCYqICEz0QFtSdAgAABAgQIECBAgAABAgQIECBAgAABAgQINFhAwqfBG0D3BAgQIECAAAECBAgQIECAAAECBAgQIECAAIGJCkj4TFRQewIECBAgQIAAAQIECBAgQIAAAQIECBAgQIBAgwUkfBq8AXRPgAABAgQIECBAgAABAgQIECBAgAABAgQIEJiogITPRAW1J0CAAAECBAgQIECAAAECBAgQIECAAAECBAg0WEDCp8EbQPcECBAgQIAAAQIECBAgQIAAAQIECBAgQIAAgYkKSPhMVFB7AgQIECBAgAABAgQIECBAgAABAgQIECBAgECDBfIN7l/39RYYGqp3xKaJ1zdvet3GcuCoXE2xBqfV1q5SZ925+sWqFD+rssENL9UUuvOIWTW1G5xe22Eqamm+fPbA5q2pBrNemZ9ap1KFlv7qnFoPDFZqXpeygZc21yVOpSBdW/orFZeVtVVRJ4TW/ii1XjXrkl+6ODVOXKH1hONS6818NX279Myrbv3a9qd2F6K21tRK1RhUCtJ6/LJKxSVlM3Z0ptaJK+yfX7rOUWt1x83oyedS47ctWZSoE+WPSJSVF8x7Mjn23Scmy8rbHTiidOxz1qfvh3GM3KqnS0INnXlyeeiKv3e8WTpncum7WDFOVHZuaj3p+ET8gXUbE2W1FszoTcYvjzUwd0Z5URiaMa2kbGjNC4k61RTkK+wH3feUxhr8tXclQkVV7IrVzqHyMeQ3vpbob6g7aVDNfKj1nJ0YQKEgv2xJSXHUmt15Nvp5cg7nKmyrSuOspaya83MtcUdrk9t3YLSXxl0+WMV8bKniuDywZVtVfbds2lJSb+j05DGp5e19iVjl8dueT1QJubNOSxT2zyk9vrZtfytRJ5pe4Rj82LOl9U45IdGu0vlqcOOmRD0FBAgQmAoC7bv7psJqWkcCBA5RgZZBx6jxbLrs/lIbzyjUJUCAAAECBAgQIECAAAECBAgQIECAAAECBAgQqFlAwqdmOg0JECBAgAABAgQIECBAgAABAgQIECBAgAABAs0hIOHTHNvBKAgQIECAAAECBAgQIECAAAECBAgQIECAAAECNQtI+NRMpyEBAgQIECBAgAABAgQIECBAgAABAgQIECBAoDkEJHyaYzsYBQECBAgQIECAAAECBAgQIECAAAECBAgQIECgZgEJn5rpNCRAgAABAgQIECBAgAABAgQIECBAgAABAgQINIeAhE9zbAejIECAAAECBAgQIECAAAECBAgQIECAAAECBAjULCDhUzOdhgQIECBAgAABAgQIECBAgAABAgQIECBAgACB5hDIN8cwjKJeAlF7W71C1S1OfsmiusTaO6+Ou2uutiHl90e1NazQqhm3VYVhJoryy5YkyqopGNrXW021RJ3cqqcTZdUUDFVTaZLr5M45PbXH/um15eGn/2IwNXZcoeX//Lyqes1Wqf2t9P1nzv6Bqobd9taB1Hq545am1qm2QjStPbVqa2/6sWXOhur26hmv9KT2F1Y/k16nxhpDs6antmx/fX9qnbhCx/bSbZo7kL4fFANXcd4Z2LItMYb87JmJsvKCOeuT26p7U/q8bStb55Z96fth3Hf5Xp3rLS8pH+H//J7fXRq/1rlf3ZGl8hiqKR1ctzG1WqVTdnWzITV0qLQflLdq/elT5UX1/T1XuoZRvjURf+iZFxJlk10wsGnLZHdZ0l8126qhAxxH55O9LoMbN41jdOOrOrQmuW9Wmp/5pYtLt+fmrYmOop8/lygrf/df3REwESYMPr8hWaiEAAECBEYEWl56hQYBAgSaVqBlqK9px9aMA0v/hKIZR21MBAgQIECAAAECBAgQIECAAAECBAgQIECAAAECIwISPnYGAgQIECBAgAABAgQIECBAgAABAgQIECBAgMAhLiDhc4hvQMMnQIAAAQIECBAgQIAAAQIECBAgQIAAAQIECJTfFpnIIS4wuP7FpluDet2nPHfOwrqt27TXks9gqCb43LX7qqlWVZ1K9zyvqmGDKzX6Hv4NXv0JdR89sSa1/exf1PjMq7JnQIzWUa33vh8t3mSV53r7U7tqHar01IBks8Hn1iULG1wyfe/S1BG0v7Q5tU5coZrnbGW5H1R6BkP5wGs7ApdHqf/vQ08/nxq05azTEnUG53QmysoLclHpWld7LC1/Dl5UFqe8n+Hfcz3pc2a0tsonV2CgwrNMJncEeiOQvYD9PHtjPRAgQGAiAoNvvDmR5toSIEAgU4HByN+34wF2hc94tNQlQIAAAQIECBAgQIAAAQIECBAgQIAAAQIECDShgIRPE24UQyJAgAABAgQIECBAgAABAgQIECBAgAABAgQIjEdAwmc8WuoSIECAAAECBAgQIECAAAECBAgQIECAAAECBJpQQMKnCTeKIREgQIAAAQIECBAgQIAAAQIECBAgQIAAAQIExiMg4TMeLXUJECBAgAABAgQIECBAgAABAgQIECBAgAABAk0oIOHThBvFkAgQIECAAAECBAgQIECAAAECBAgQIECAAAEC4xGQ8BlD66abbgq5XK7k5+STTx5p0dPTE6655powb968MHPmzLBixYqwc+fOMSJ6iQABAgQIECBAgAABAgQIECBAgAABAgQIECBQfwEJnxTT0047Lbz66qsjP4888shIi+uvvz7cf//94b777gsPP/xw2L59e7jyyitTInqZAAECBAgQIECAAAECBAgQIECAAAECBAgQIFBfgXx9wx1+0fL5fDj66KMTK7Z79+5w1113he985zvh0ksvLb5+9913h1NOOSWsXr06XHDBBYk2CggQIECAAAECBAgQIECAAAECBAgQIECAAAECWQhI+KSobtiwISxcuDB0dnaGCy+8MNxyyy1h8eLF4cknnwz9/f3h8ssvH4kQ3+4tfm3VqlUSPimutbzc2hvV0qxim47dQxXL0wpb9valVan69dpGUHV4FQ9RgYEt2w7RkWc77FxPf2oHuf7B1DpxhepqVRWqbpWillxqrKGL35laJ64wVMfjVFUd1lCp9cR3VNUq1z9QUm9g05aq2tVaKb90cWrToQr7WcfOvantBp9bl1qnUgXHhEoqyggQIECAAAECBAgQIECAAIFKAhI+lVT+X9n5558fvvWtb4WTTjqpeEu3m2++Obz73e8Oa9asCTt27Ajt7e1h9uzZJRHmz59ffG20pbe3N8Q/w8uePXtGq6qcAAECBAgQIECAAAECBAgQIECAAAECBAgQIFCVgITPGEzvfe97R14988wzQ5wAWrJkSfje974Xpk2bNkbL0V+KrxCKE0cWAgQIECBAgAABAgQIECBAgAABAgQIECBAgEC9BFrqFWgqxImv5jnxxBPDxo0bi8/16evrC7t27SpZ9Z07d1Z85s9wpZUrV4b4+T/DP9u2uX3TVNh3rCMBAgQIECBAgAABAgQIECBAgAABAgQIEMhSQMJnHLp79+4NL774YliwYEE4++yzQ1tbW3jwwQdHIqxbty5s3bq1+Kyf0ZaOjo7Q1dVV8jNaXeUECBAgQIAAAQIECBAgQIAAAQIECBAgQIAAgWoE3NJtDKXPfOYz4f3vf3/xNm7bt28PN954Y2htbQ0f+tCHQnd3d7j66qvDDTfcEObOnVtM4Fx77bXFZM8FF1wwRlQvESBAgAABAgQIECBAgAABAgQIECBAgAABAgTqKyDhM4bnyy+/XEzuvPHGG+HII48MF198cVi9enXx//Hy1a9+NbS0tIQVK1aE3t7esHz58vC1r31tjIheIkCAAAECBAgQIECAAAECBAgQIECAAAECBAjUX0DCZwzTe++9d4xXQ+js7Ax33HFH8cdCgAABAgQIECBAgAABAgQIECBAgAABAgQIEGiUgGf4NEpevwQIECBAgAABAgQIECBAgAABAgQIECBAgACBOgm4wqdOkMJkLzDjxbfq1knU1lpTrFz/QE3tNCJAYGICud6+1AADW7al1mnWCoMbN6UOrWVjapVihaHqqjW01uD6Fxva/2idD2zeOtpLI+X5ZUsSdaL2tkSZAgIECBAgQIAAAQIECBAgQIDAZAu4wmeyxfVHgAABAgQIECBAgAABAgQIECBAgAABAgQIEKizgIRPnUGFI0CAAAECBAgQIECAAAECBAgQIECAAAECBAhMtoCEz2SL648AAQIECBAgQIAAAQIECBAgQIAAAQIECBAgUGcBCZ86gwpHgAABAgQIECBAgAABAgQIECBAgAABAgQIEJhsAQmfyRbXHwECBAgQIECAAAECBAgQIECAAAECBAgQIECgzgISPnUGFY4AAQIECBAgQIAAAQIECBAgQIAAAQIECBAgMNkCEj6TLa4/AgQIECBAgAABAgQIECBAgAABAgQIECBAgECdBSR86gwqHAECBAgQIECAAAECBAgQIECAAAECBAgQIEBgsgXyk92h/gjUKhC1tdbaNNFuaHp7oqyagvzufdVUU4cAgToLDGzZVueIzRUuv2RR6oAOd4NUgCapMLBpS5OMxDAIECBAgAABAgQIECBAgAABAqUCrvCxRxAgQIAAAQIECBAgQIAAAQIECBAgQIAAAQIEDnEBCZ9DfAMaPgECBAgQIECAAAECBAgQIECAAAECBAgQIEBAwsc+QIAAAQIECBAgQIAAAQIECBAgQIAAAQIECBA4xAUkfA7xDWj4BAgQIECAAAECBAgQIECAAAECBAgQIECAAAEJH/sAAQIECBAgQIAAAQIECBAgQIAAAQIECBAgQOAQF5DwOcQ3oOETIECAAAECBAgQIECAAAECBAgQIECAAAECBCR87AMECBAgQIAAAQIECBAgQIAAAQIECBAgQIAAgUNcQMLnEN+Ahk+AAAECBAgQIECAAAECBAgQIECAAAECBAgQkPCxDxAgQIAAAQIECBAgQIAAAQIECBAgQIAAAQIEDnGB/CE+fsMvE8gvWVQXk4Et2+oSp55Bhp55oZ7haoo1UFMrjQgQIDC2QDMec8cesVcJECBAgAABAgQIECBAgAABAgSaTcAVPs22RYyHAAECBAgQIECAAAECBAgQIECAAAECBAgQIDBOAQmfcYKpToAAAQIECBAgQIAAAQIECBAgQIAAAQIECBBoNgEJn2bbIsZDgAABAgQIECBAgAABAgQIECBAgAABAgQIEBingGf4jBOs2atHbTZps28j4yNAgAABAgQIECBAgAABAgQIECBAgAABAvUWcIVPvUXFI0CAAAECBAgQIECAAAECBAgQIECAAAECBAhMsoCEzySD644AAQIECBAgQIAAAQIECBAgQIAAAQIECBAgUG8BCZ96i4pHgAABAgQIECBAgAABAgQIECBAgAABAgQIEJhkAQmfSQbXHQECBAgQIECAAAECBAgQIECAAAECBAgQIECg3gISPvUWFY8AAQIECBAgQIAAAQIECBAgQIAAAQIECBAgMMkCEj6TDK47AgQIECBAgAABAgQIECBAgAABAgQIECBAgEC9BSR86i0qHgECBAgQIECAAAECBAgQIECAAAECBAgQIEBgkgUkfCYZXHcECBAgQIAAAQIECBAgQIAAAQIECBAgQIAAgXoLSPjUW1Q8AgQIECBAgAABAgQIECBAgAABAgQIECBAgMAkC+QnuT/dZSwwuHFTxj0IT4AAAQIECBAgQIAAAQIECBAgQIAAAQIECDSbgCt8mm2LGA8BAgQIECBAgAABAgQIECBAgAABAgQIECBAYJwCEj4pYK+88kr43d/93TBv3rwwbdq0cMYZZ4QnnnhipFUUReELX/hCWLBgQfH1yy+/PGzYsCElqpcJECBAgAABAgQIECBAgAABAgQIECBAgAABAvUTkPAZw/Ktt94KF110UWhrawsPPPBAWLt2bfjKV74S5syZM9Lq1ltvDbfffnu48847w6OPPhpmzJgRli9fHnp6esaI7CUCBAgQIECAAAECBAgQIECAAAECBAgQIECAQP0EPMNnDMu//Mu/DIsWLQp33333SK1ly5aN/D++uue2224Lf/7nfx6uuOKKYvk//MM/hPnz54cf/OAH4YMf/OAY0b1EgAABAgQIECBAgAABAgQIECBAgAABAgQIEKiPgCt8xnD813/913DOOeeE3/zN3wxHHXVUOOuss8I3v/nNkRabNm0KO3bsKN7GbXjp7u4O559/fli1atUYkb1EgAABAgQIECBAgAABAgQIECBAgAABAgQIEKifgITPGJYvvfRS+PrXvx5OOOGE8O///u/hk5/8ZPjUpz4Vvv3tbxdbxcmeeImv6Dl4iX8ffq3khcIvvb29Yc+ePSU/5XX8ToAAAQIECBAgQIAAAQIECBAgQIAAAQIECBAYj4Bbuo2hNTQ0VLzC50tf+lKxVnyFz5o1a4rP6/nwhz88RsvRX7rlllvCzTffPHoFrxAgQIAAAQIECBAgQIAAAQIECBAgQIAAAQIExingCp8xwBYsWBBOPfXUkhqnnHJK2Lp1a7Hs6KOPLv67c+fOkjrx78OvlbxQ+GXlypVh9+7dIz/btm0rr+J3AgQIECBAgAABAgQIECBAgAABAgQIECBAgMC4BCR8xuC66KKLwrp160pqrF+/PixZsqRYtmzZsmJi58EHHxypE9+u7dFHHw0XXnhhxcgdHR2hq6ur5KdiRYUECBAgQIAAAQIECBAgQIAAAQIECBAgQIAAgSoF3NJtDKjrr78+/PIv/3Lxlm6/9Vu/FR577LHwd3/3d8WfeMnlcuG6664LX/ziF4vP+YkTQJ///OfDwoULwwc+8IExInuJAAECBAgQIECAAAECBAgQIECAAAECBAgQIFA/AQmfMSzPPffc8P3vf794G7a/+Iu/KCZ0brvttnDVVVeNtPrjP/7jsG/fvvDxj3887Nq1K1x88cXh3/7t30JnZ+cYkb1EgAABAgQIECBAgAABAgQIECBAgAABAgQIEKifQC4qLPULJ9J4BeJbwHV3d4dLwhUhn2sbb3P1CRAgQIAAAQIECBAgQIAAAQIECBAgQIDAYSkwEPWHh8L/Crt37y4+JsUytoBn+Izt41UCBAgQIECAAAECBAgQIECAAAECBAgQIECAQNMLSPg0/SYyQAIECBAgQIAAAQIECBAgQIAAAQIECBAgQIDA2AISPmP7eJUAAQIECBAgQIAAAQIECBAgQIAAAQIECBAg0PQCEj5Nv4kMkAABAgQIECBAgAABAgQIECBAgAABAgQIECAwtoCEz9g+XiVAgAABAgQIECBAgAABAgQIECBAgAABAgQINL2AhE/TbyIDJECAAAECBAgQIECAAAECBAgQIECAAAECBAiMLSDhM7aPVwkQIECAAAECBAgQIECAAAECBAgQIECAAAECTS8g4dP0m8gACRAgQIAAAQIECBAgQIAAAQIECBAgQIAAAQJjC0j4jO3jVQIECBAgQIAAAQIECBAgQIAAAQIECBAgQIBA0wvkm36Eh/kAoygqruFA6A/hf/57mK+x1SNAgAABAgQIECBAgAABAgQIECBAgAABAukCxc/NC8vw5+jpLaZ2DQmfBm//t99+uziCR8KPGjwS3RMgQIAAAQIECBAgQIAAAQIECBAgQIAAgeYTiD9H7+7ubr6BNdmIcoXMmOtKGrhRhoaGwvbt24sZysWLF4dt27aFrq6uBo5I1wQIVBLYs2dPWLRokTlaCUcZgQYLmJ8N3gC6J5DVtB6rAAAXFUlEQVQiYI6mAHmZQAMFzM8G4uuaQBUC5mgVSKoQaJCA+Tl58PHn5nGyZ+HChaGlxRNq0uRd4ZMmlPHr8U567LHHhvggES9xskfCJ2N04QlMQMAcnQCepgQyFjA/MwYWnsAEBczRCQJqTiBDAfMzQ1yhCdRBwBytA6IQBDISMD8zgi0L68qe6p2lxKq3UpMAAQIECBAgQIAAAQIECBAgQIAAAQIECBAg0JQCEj5NuVkMigABAgQIECBAgAABAgQIECBAgAABAgQIECBQvUDrTYWl+upqZinQ2toaLrnkkpDPu9Nels5iE6hVwBytVU47AtkLmJ/ZG+uBwEQEzNGJ6GlLIFsB8zNbX9EJTFTAHJ2ooPYEshMwP7OzFbl2gVzhoUdR7c21JECAAAECBAgQIECAAAECBAgQIECAAAECBAgQaLSAW7o1egvonwABAgQIECBAgAABAgQIECBAgAABAgQIECAwQQEJnwkCak6AAAECBAgQIECAAAECBAgQIECAAAECBAgQaLSAhE+jt4D+CRAgQIAAAQIECBAgQIAAAQIECBAgQIAAAQITFJDwmSBgvZrfcccdYenSpaGzszOcf/754bHHHqtXaHEIEKhS4Kabbgq5XK7k5+STTx5p3dPTE6655powb968MHPmzLBixYqwc+fOKqOrRoDAeAV+9rOfhfe///1h4cKFxXn5gx/8oCRE/BjCL3zhC2HBggVh2rRp4fLLLw8bNmwoqfPmm2+Gq666KnR1dYXZs2eHq6++Ouzdu3e8Q1GfAIEygbT5+ZGPfCRxTv31X/9189OeRGASBG655ZZw7rnnhlmzZoWjjjoqfOADHwjr1q0r6bma97Vbt24N73vf+8L06dOLcT772c+GgYGBSVgDXRA4vAWqmaOXXHJJ4jz6iU98ogTGHD289xNr1xiBr3/96+HMM88s/v0Y/1x44YXhgQceGBmM82djtotexycg4TM+r0xq/+M//mO44YYbwo033hieeuqp8Eu/9Eth+fLl4bXXXsukP0EJEBhd4LTTTguvvvrqyM8jjzwyUvn6668P999/f7jvvvvCww8/HLZv3x6uvPLK0YN5hQCBCQns27eveE6MvxRRabn11lvD7bffHu68887w6KOPhhkzZhTPn/Gb8OElTvY899xz4Sc/+Un44Q9/GOIPqT/+8Y9XCqeMAIFxCKTNzzhUnOA5+Jz63e9+t6QH83Mc4KoSGIdA/D41/pLS6tWri+e//v7+8J73vCfE83Z4SXtfOzg4WEz29PX1hf/6r/8K3/72t8O3vvWt4hctLAQITEygmjka9/Cxj32s5Dwav/cdXszRiW0DrQmMJnDssceGL3/5y+HJJ58MTzzxRLj00kvDFVdcUfybMl6cP0eTU95UAoVvx1oaLHDeeedFhTfkI6MonLijwreZo8K3Pho8Mt0TmFoChaRrVPhwueJK79q1K2pra4sKyZ6R159//vmocECPVq1aVbGNQgIE6icQz7Xvf//7IwGHhoaio48+Ovqrv/qrkbJ4nnZ0dESFD5WLZWvXri3O0ccff3ykTuHbWVHhaqHolVdeqd/gRCIwxQXK52fM8eEPfzgq/HE8qoz5OSqNFwjUXaDwRcLi+bDwIXMxdjXva3/0ox9FLS0t0Y4dO0bGU/jWc1T4tnPU29tb9zEKSGAqC5TP0djiV3/1V6NPf/rTo7KYo6PSeIFA3QXmzJkT/f3f/73zZ91lBcxKwBU+DU6/xd+YirPG8W1ohpfCG+vi74UPkRs8Ot0TmHoC8e2g4ttHHXfcccXbQMWXycdLPE/jb0cePFfj270tXrzYXJ16u4k1bgKBTZs2hcKHUCVzsru7u3hb1OHzZ/xvfBu3c845Z2TE8RyOz7PxFUEWAgSyFXjooYeKt4E66aSTwic/+cnwxhtvjHRofmZrLzqBgwV2795d/HXu3LnFf6t5XxvP0TPOOCPMnz9/JFR8Fe2ePXtGvuV8cB/+T4BA7QLlc3Q40j333BOOOOKIcPrpp4eVK1eG/fv3j3RijtburSWBagXiK+nuvffe4hWy8a3dnD+rlVOv0QL5Rg9gqvf/+uuvh/gAcvAb6dgk/v2FF16Y6jzWn8CkCsQfFMe3qog/mIpvQXPzzTeHd7/73WHNmjXFD5bb29uLHx4fvMRzNX7NQoDA5AoMz7tK58/h1+J/4w+bD17y+XzxAy/zdnK3l96mnkB8O7f4tqfLli0LL774YvjTP/3T8N73vreYkG1tbS3OQfNz6u0X1njyBQpXxIbrrrsuXHTRRcUPjeOlmve1cZ1K59jh9pO/JnokcHgKVJqj8Zr+zu/8TliyZEnxy4jPPPNM+NznPld8Fte//Mu/FCHM0cNzf7BWzSHw7LPPFhM88a3C4+c3F+40EU499dTw3//936mfC5mbzbENp/ooJHym+h5g/QkQGBGIP4gaXuKH9MUJoPhN9ve+973iA+EtBAgQIECAQHUCH/zgB0cqxlcJxOfVd7zjHSG+6ueyyy6rLohaBAhMWCB+lk/85aWDn0s54aACECBQN4HR5ujBz5yMz6MLFiwonj/jL1HE51MLAQLZCcRfAo6TO/HVd//0T/8UCrcqLj7H2ULgUBFwS7cGb6n48tz4W447d+4sGUn8e+HZBA0ene4JTG2B+GqeE088MWzcuLE4H+NbMBbueW6uTu3dwto3icDwOXKs82dcp3BP9JIRDwwMhDfffNM5tkm2o2FMHYH4Vqnx+974nBov5ufU2fbWtHECf/iHfxh++MMfhp/+9Kchfgj18FLN+9q4TqVz7PD8bdxa6ZnA4SMw2hyttIbxlxHj5eDzqDlaSUoZgYkLxHd3Of7448PZZ58dCs9XD4VnPYe//uu/rupzIefPifuLMHEBCZ+JG04oQnwQiQ8gDz744Eic+JLe+Pf48kELAQKNE9i7d2/xG1Txt6niedrW1lYyV+NL6uNn/JirjdtGep66AvFtouI30wefP+PnCsTP5hmek/G/cZI2vtfy8PKf//mfIT7PDv/RPHUFrTmByRV4+eWXi8/wic+p8WJ+Tq6/3qaWQOEBwCH+IDm+BU183ovPmQcv1byvjedofEubg7848ZOf/CR0dXUVb2tjIUCgdoG0OVopcny1QbwcfB41RytJKSNQf4H478fe3t6qPhdy/qy/v4jjF2i9qbCMv5kW9RSI3zR//vOfD4sWLQodHR3F/8cn87vuuqt4r0gLAQKTI/CZz3ymOAfjZe3ateETn/hE8Y/cO++8s/jMj+3bt4e//du/De985zuLVwj8/u//fnHe3njjjZMzQL0QmGICcdI1novxfZC/8Y1vFJM08e0V46vt4ivw4mfgfelLXyp+8BSXfepTnyo+zPZv/uZvQvysniOPPLKYAPrud78bzjrrrLB58+bivH3Pe94TPvKRj0wxTatLoL4CY83P+Or1P/uzPyt+MBxfVRcnXa+++uri+9qvfOUr5md9N4VoBBIC8S2i4oe9x7ehiZ//Ec/X+Ceem/EXmDo7O1Pf18ZX5f3zP/9z+I//+I/iLRmffvrpcO211xbfHy9fvjzRpwICBKoXSJuj8ZcO77jjjuJ5M36P+7Of/aw49+Jbu/3Jn/xJsSNztHpvNQmMR2DlypXF5/TEidlt27aF2267rXhOvfXWW4t/d6Z9LmRujkdb3cwECjuwpQkECh9ORYsXL44KB5XovPPOi1avXt0EozIEAlNL4Ld/+7ejwjemivPwmGOOieLfC5fMjyAcOHAg+oM/+INozpw50fTp06Pf+I3fiF599dWphWRtCUyiQOEWNFHhDVDip3AP5eIoCt+0igpfkogKD5WOCsnaqHBf86hw5V3JCAtXFEQf+tCHosIfzFHhw+foox/9aPT2229P4lroisDhKTDW/CwkXqNCYjUqJF2jwofLUeF5eNHHPvaxqJC8NT8Pz93BWjWZQKVzZ1x29913j4y0mve1hS9KRIVnXEaFL1tEhVsyRn/0R38U9ff3N9naGg6BQ08gbY4W7iIR/cqv/EpU+NJh8T1u4dZS0Wc/+9mo8DyRkpU1Rw+9bW/EzS/we7/3e8X3rvHnQvF72fhvzB//+McjA3f+bP5taIRRlIsRMssmCUyAAAECBAgQIECAAAECBAgQIECAAAECBAgQIJC5gGf4ZE6sAwIECBAgQIAAAQIECBAgQIAAAQIECBAgQIBAtgISPtn6ik6AAAECBAgQIECAAAECBAgQIECAAAECBAgQyFxAwidzYh0QIECAAAECBAgQIECAAAECBAgQIECAAAECBLIVkPDJ1ld0AgQIECBAgAABAgQIECBAgAABAgQIECBAgEDmAhI+mRPrgAABAgQIECBAgAABAgQIECBAgAABAgQIECCQrYCET7a+ohMgQIAAAQIECBAgQIAAAQIECBAgQIAAAQIEMheQ8MmcWAcECBAgQIAAAQIECBAgQIAAAQIECBAgQIAAgWwFJHyy9RWdAAECBAgQIECAAAECBAgQIECAAAECBAgQIJC5gIRP5sQ6IECAAAECBAgQIECAAAECBAgQIECAAAECBAhkKyDhk62v6AQIECBAgAABAgQIECBAgAABAgQIECBAgACBzAUkfDIn1gEBAgQIECBAgAABAgQIECBAgAABAgQIECBAIFsBCZ9sfUUnQIAAAQIECBAgQIAAAQIECBAgQIAAAQIECGQuIOGTObEOCBAgQIAAAQIECBAgQIAAAQIECBAgQIAAAQLZCkj4ZOsrOgECBAgQIECAAAECBAgQIECAAAECBAgQIEAgcwEJn8yJdUCAAAECBAgQIECAAAECBAgQIECAAAECBAgQyFZAwidbX9EJECBAgAABAgQIECBAgAABAgQIECBAgAABApkLSPhkTqwDAgQIECBAgAABAgQIECBAgAABAgQIECBAgEC2AhI+2fqKToAAAQIECBAgQIAAAQIECBAgQIAAAQIECBDIXEDCJ3NiHRAgQIAAAQIECBAgQIAAAQIECBAgQIAAAQIEshWQ8MnWV3QCBAgQIECAAAECBAgQIECAAAECBAgQIECAQOYCEj6ZE+uAAAECBAgQIECAAAECBAgQIECAAAECBAgQIJCtgIRPtr6iEyBAgAABAgQIECBAgAABAgQIECBAgAABAgQyF5DwyZxYBwQIECBAgAABAgQIECBAgAABAgQIECBAgACBbAUkfLL1FZ0AAQIECBAgQIAAAQIECBAgQIAAAQIECBAgkLmAhE/mxDogQIAAAQIECBAgQIAAAQIECBAgQIAAAQIECGQrIOGTra/oBAgQIECAAAECBAgQIECAAAECBAgQIECAAIHMBSR8MifWAQECBAgQIECAAAECBAgQIECAAAECBAgQIEAgWwEJn2x9RSdAgAABAgQIECBAgAABAgQIECBAgAABAgQIZC4g4ZM5sQ4IECBAgAABAgQIECBAgAABAgQIECBAgAABAtkKSPhk6ys6AQIECBAgQIAAAQIECBAgQIAAAQIECBAgQCBzAQmfzIl1QIAAAQIECBAgQIAAAQIECBAgQIAAAQIECBDIVkDCJ1tf0QkQIECAAAECBAgQIECAAAECBAgQIECAAAECmQtI+GROrAMCBAgQIECAAAECBAgQIECAAAECBAgQIECAQLYCEj7Z+opOgAABAgQIECBAgAABAgQIECBAgAABAgQIEMhcQMInc2IdECBAgAABAgQIECBAgAABAgQIECBAgAABAgSyFZDwydZXdAIECBAgQIAAAQIECBAgQIAAAQIECBAgQIBA5gISPpkT64AAAQIECBAgQIAAAQIECBAgQIAAAQIECBAgkK2AhE+2vqITIECAAAECBAgQIECAAAECBAgQIECAAAECBDIXkPDJnFgHBAgQIECAAAECBAgQIECAAAECBAgQIECAAIFsBSR8svUVnQABAgQIECBAgAABAgQIECBAgAABAgQIECCQuYCET+bEOiBAgAABAgQIECBAgAABAgQIECBAgAABAgQIZCsg4ZOtr+gECBAgQIAAAQIECBAgQIAAAQIECBAgQIAAgcwFJHwyJ9YBAQIECBAgQIAAAQIECBAgQIAAAQIECBAgQCBbAQmfbH1FJ0CAAAECBAgQIECAAAECBAgQIECAAAECBAhkLiDhkzmxDggQIECAAAECBAgQIECAAAECBAgQIECAAAEC2QpI+GTrKzoBAgQIECBAgAABAgQIECBAgAABAgQIECBAIHMBCZ/MiXVAgAABAgQIECBAgAABAgQIECBAgAABAgQIEMhWQMInW1/RCRAgQIAAAQIECBAgQIAAAQIECBAgQIAAAQKZC0j4ZE6sAwIECBAgQIAAAQIECBAgQIAAAQIECBAgQIBAtgISPtn6ik6AAAECBAgQIECAAAECBAgQIECAAAECBAgQyFxAwidzYh0QIECAAAECBAgQIECAAAECBAgQIECAAAECBLIVkPDJ1ld0AgQIECBAgAABAgQIECBAgAABAgQIECBAgEDmAhI+mRPrgAABAgQIECBAgAABAgQIECBAgAABAgQIECCQrYCET7a+ohMgQIAAAQIECBAgQIAAAQIECBAgQIAAAQIEMheQ8MmcWAcECBAgQIAAAQIECBAgQIAAAQIECBAgQIAAgWwFJHyy9RWdAAECBAgQIECAAAECBAgQIECAAAECBAgQIJC5gIRP5sQ6IECAAAECBAgQIECAAAECBAgQIECAAAECBAhkKyDhk62v6AQIECBAgAABAgQIECBAgAABAgQIECBAgACBzAUkfDIn1gEBAgQIECBAgAABAgQIECBAgAABAgQIECBAIFsBCZ9sfUUnQIAAAQIECBAgQIAAAQIECBAgQIAAAQIECGQuIOGTObEOCBAgQIAAAQIECBAgQIAAAQIECBAgQIAAAQLZCkj4ZOsrOgECBAgQIECAAAECBAgQIECAAAECBAgQIEAgcwEJn8yJdUCAAAECBAgQIECAAAECBAgQIECAAAECBAgQyFZAwidbX9EJECBAgAABAgQIECBAgAABAgQIECBAgAABApkLSPhkTqwDAgQIECBAgAABAgQIECBAgAABAgQIECBAgEC2AhI+2fqKToAAAQIECBAgQIAAAQIECBAgQIAAAQIECBDIXEDCJ3NiHRAgQIAAAQIECBAgQIAAAQIECBAgQIAAAQIEshWQ8MnWV3QCBAgQIECAAAECBAgQIECAAAECBAgQIECAQOYCEj6ZE+uAAAECBAgQIECAAAECBAgQIECAAAECBAgQIJCtgIRPtr6iEyBAgAABAgQIECBAgAABAgQIECBAgAABAgQyF5DwyZxYBwQIECBAgAABAgQIECBAgAABAgQIECBAgACBbAUkfLL1FZ0AAQIECBAgQIAAAQIECBAgQIAAAQIECBAgkLmAhE/mxDogQIAAAQIECBAgQIAAAQIECBAgQIAAAQIECGQrIOGTra/oBAgQIECAAAECBAgQIECAAAECBAgQIECAAIHMBSR8MifWAQECBAgQIECAAAECBAgQIECAAAECBAgQIEAgWwEJn2x9RSdAgAABAgQIECBAgAABAgQIECBAgAABAgQIZC4g4ZM5sQ4IECBAgAABAgQIECBAgAABAgQIECBAgAABAtkKSPhk6ys6AQIECBAgQIAAAQIECBAgQIAAAQIECBAgQCBzAQmfzIl1QIAAAQIECBAgQIAAAQIECBAgQIAAAQIECBDIVkDCJ1tf0QkQIECAAAECBAgQIECAAAECBAgQIECAAAECmQtI+GROrAMCBAgQIECAAAECBAgQIECAAAECBAgQIECAQLYCEj7Z+opOgAABAgQIECBAgAABAgQIECBAgAABAgQIEMhcQMInc2IdECBAgAABAgQIECBAgAABAgQIECBAgAABAgSyFfi/hKtLsl7sMLYAAAAASUVORK5CYII=;" parent="1" vertex="1">
          <mxGeometry x="84" y="3" width="531.2" height="160" as="geometry" />
        </mxCell>
        <mxCell id="oDQJR88P7lTVQKwUNWeM-2" value="Mel Spectrogram (256 samples)" style="shape=crossbar;whiteSpace=wrap;html=1;rounded=1;" parent="1" vertex="1">
          <mxGeometry x="115" y="133" width="380" height="20" as="geometry" />
        </mxCell>
        <mxCell id="oDQJR88P7lTVQKwUNWeM-3" value="ZCR (64)" style="shape=crossbar;whiteSpace=wrap;html=1;rounded=1;" parent="1" vertex="1">
          <mxGeometry x="495.20000000000005" y="133" width="99.8" height="20" as="geometry" />
        </mxCell>
        <mxCell id="oDQJR88P7lTVQKwUNWeM-4" value="64" style="shape=crossbar;whiteSpace=wrap;html=1;rounded=1;direction=south;" parent="1" vertex="1">
          <mxGeometry x="84" y="33" width="20" height="100" as="geometry" />
        </mxCell>
        <mxCell id="oDQJR88P7lTVQKwUNWeM-10" value="" style="rounded=0;whiteSpace=wrap;html=1;" parent="1" vertex="1">
          <mxGeometry x="159.60000000000002" y="18" width="380" height="20" as="geometry" />
        </mxCell>
        <mxCell id="oDQJR88P7lTVQKwUNWeM-9" value="" style="shape=image;verticalLabelPosition=bottom;labelBackgroundColor=default;verticalAlign=top;aspect=fixed;imageAspect=0;image=data:image/png,iVBORw0KGgoAAAANSUhEUgAACLMAAAAuCAYAAADZL8krAAAAAXNSR0IArs4c6QAAAARnQU1BAACxjwv8YQUAAAAJcEhZcwAADsMAAA7DAcdvqGQAAAPjSURBVHhe7dpBrts6DAXQ2N5al/D3v5Sm0YeHjXmBEgJbnDOxBwJJyX5I8nCPH8d/79eT47hvvjjO++a74yxqLEGdV1HnqGZdzqBPVSeokc3ScC5RjT19oj13PKO2Pg11mmZ5V7N07TlZs2mWd7Um+FP912Z5ByWS97bcz1Itic7tvnnScLYt+/ko60Q17psn0TO6b75pO//7+k1Qo+38q2e9aZaWc/voeP+3zdJRY4nqFIs2zbLtbJdqza4+H2WdqEawqKXPffOko86gPl17rtZsO9tEV59qzV/X5/kn+FLW6djPx7Zzua+POvpE+wmmKeq0nNvS0ufP9/O/ak1Q490xSzJrYtcsg/okH+FlnaDG0bHnj3LeZM/39Uk5b9PZJudSflWOagzqc1+fnEWdrlnqf2UlNbpmeV7TcW5Lx9l29FnO4pN+6yzFmmrW5Tx+3nfflX269hPNW81S7+dqmCXb865Z/vwZLtfruU7Xc676LFWdK9lz8D5VdTpqLNG70PCcqxpLVqc4l6bnXJ9/UqNnlupckrPN3suiT9dzbjj/Xe9TX5/kXXhek73bwbzFmuy9TfrUruLLWFTjvj65gh8RVa8r+OZ4Bn2qOmew62w/dZ2zmOX6TV4heSYAAAAAAAAAALCFMAsAAAAAAAAAAGMIswAAAAAAAAAAMIYwCwAAAAAAAAAAYwizAAAAAAAAAAAwhjALAAAAAAAAAABjCLMAAAAAAAAAADCGMAsAAAAAAAAAAGMIswAAAAAAAAAAMIYwCwAAAAAAAAAAYwizAAAAAAAAAAAwhjALAAAAAAAAAABjCLMAAAAAAAAAADCGMAsAAAAAAAAAAGMIswAAAAAAAAAAMIYwCwAAAAAAAAAAYwizAAAAAAAAAAAwhjALAAAAAAAAAABjCLMAAAAAAAAAADCGMAsAAAAAAAAAAGMIswAAAAAAAAAAMIYwCwAAAAAAAAAAYwizAAAAAAAAAAAwhjALAAAAAAAAAABjCLMAAAAAAAAAADCGMAsAAAAAAAAAAGMIswAAAAAAAAAAMIYwCwAAAAAAAAAAYwizAAAAAAAAAAAwhjALAAAAAAAAAABjCLMAAAAAAAAAADCGMAsAAAAAAAAAAGMIswAAAAAAAAAAMIYwCwAAAAAAAAAAYwizAAAAAAAAAAAwhjALAAAAAAAAAABjCLMAAAAAAAAAADCGMAsAAAAAAAAAAGMIswAAAAAAAAAAMIYwCwAAAAAAAAAAYwizAAAAAAAAAAAwhjALAAAAAAAAAABjCLMAAAAAAAAAADCGMAsAAAAAAAAAAGMIswAAAAAAAAAAMMTr9QuG9Yljzxr04QAAAABJRU5ErkJggg==;" parent="1" vertex="1">
          <mxGeometry x="164.60000000000002" y="24.180000000000007" width="370" height="7.64" as="geometry" />
        </mxCell>
        <mxCell id="oDQJR88P7lTVQKwUNWeM-11" value="&lt;font color=&quot;#fafafa&quot;&gt;0&lt;/font&gt;" style="text;html=1;align=center;verticalAlign=middle;whiteSpace=wrap;rounded=0;" parent="1" vertex="1">
          <mxGeometry x="159.60000000000002" y="13" width="20" height="30" as="geometry" />
        </mxCell>
        <mxCell id="oDQJR88P7lTVQKwUNWeM-12" value="255" style="text;html=1;align=center;verticalAlign=middle;whiteSpace=wrap;rounded=0;" parent="1" vertex="1">
          <mxGeometry x="514.6" y="13" width="20" height="30" as="geometry" />
        </mxCell>
      </root>
    </mxGraphModel>
  </diagram>
</mxfile>
